<svg width="496" height="61" viewBox="0 0 496 61" fill="none" xmlns="http://www.w3.org/2000/svg">
  <path
    d="M42.8255 3.60629C38.5445 1.2608 33.7477 0.0871887 28.4332 0.0871887C23.1187 0.0871887 18.2729 1.2608 13.9814 3.60629C9.68817 5.95177 6.30082 9.39762 3.81583 13.9421C1.32909 18.4883 0.0874634 24.0198 0.0874634 30.5401C0.0874634 37.0604 1.32909 42.5396 3.81583 47.0579C6.30082 51.5762 9.68992 55.0151 13.9814 57.3745C18.2729 59.734 23.0907 60.9128 28.4332 60.9128C33.7756 60.9128 38.5463 59.7392 42.8255 57.3937C47.1047 55.0482 50.4938 51.6093 52.991 47.0771C55.4883 42.5448 56.7387 37.0325 56.7387 30.5384C56.7387 24.0442 55.4883 18.4866 52.991 13.9404C50.4921 9.39588 47.103 5.95002 42.8255 3.60454V3.60629ZM40.4734 40.2795C39.3839 42.9302 37.8153 44.9443 35.7692 46.322C33.7214 47.6996 31.2767 48.3885 28.4332 48.3885C25.5897 48.3885 23.1432 47.6996 21.0971 46.322C19.0511 44.9443 17.4754 42.9302 16.3737 40.2795C15.2702 37.6289 14.7194 34.3836 14.7194 30.5401C14.7194 26.6967 15.2702 23.4043 16.3737 20.7396C17.4772 18.0768 19.0511 16.0557 21.0971 14.6763C23.1432 13.2986 25.5879 12.6098 28.4332 12.6098C31.2784 12.6098 33.7214 13.2986 35.7692 14.6763C37.8153 16.0539 39.3839 18.075 40.4734 20.7396C41.5629 23.4025 42.1085 26.6705 42.1085 30.5401C42.1085 34.4097 41.5629 37.6306 40.4734 40.2795Z"
    stroke="#B5D8CD"></path>
  <path
    d="M98.7177 37.8538C98.7177 39.9203 98.2595 41.7496 97.3432 43.34C96.4268 44.9304 95.1572 46.1755 93.5361 47.0771C91.915 47.9786 90.0403 48.4286 87.9156 48.4286C85.7908 48.4286 83.9144 47.9786 82.295 47.0771C80.6739 46.1755 79.4043 44.9304 78.488 43.34C77.5716 41.7496 77.1135 39.9203 77.1135 37.8538V0.882385H62.8016V39.0466C62.8016 43.4725 63.8508 47.323 65.9511 50.5962C68.0496 53.8694 70.9805 56.4067 74.7421 58.2098C78.502 60.013 82.8949 60.9128 87.9173 60.9128C92.9398 60.9128 97.2994 60.0112 101.073 58.2098C104.847 56.4084 107.783 53.8711 109.884 50.5962C111.982 47.323 113.033 43.4743 113.033 39.0466V0.882385H98.7212V37.8538H98.7177Z"
    stroke="#B5D8CD"></path>
  <path
    d="M163.244 31.0563C165.038 28.1946 165.935 24.7087 165.935 20.6001C165.935 16.4916 165.052 13.0806 163.284 10.1248C161.516 7.17072 159.012 4.8915 155.769 3.28716C152.527 1.68456 148.673 0.882385 144.208 0.882385H119.729V60.1176H134.041V39.8418H141.422L152.26 60.1176H167.967L155.617 37.5731C158.915 36.0768 161.458 33.904 163.242 31.0563H163.244ZM134.041 12.4511H141.097C143.276 12.4511 145.104 12.7493 146.58 13.3457C148.056 13.9421 149.171 14.8437 149.928 16.0487C150.686 17.2554 151.065 18.7726 151.065 20.6001C151.065 22.4277 150.686 23.9326 149.928 25.1132C149.171 26.2921 148.056 27.1605 146.58 27.7168C145.105 28.2731 143.29 28.5521 141.137 28.5521H134.041V12.4511Z"
    stroke="#B5D8CD"></path>
  <path
    d="M227.369 0.882385L214.092 44.2555H213.535L200.338 0.882385H184.192L204.285 60.1176H223.342L243.395 0.882385H227.369Z"
    stroke="#B5D8CD"></path>
  <path
    d="M256.83 0.882385L236.737 60.1176H252.166L256.084 47.6735H276.635L280.552 60.1176H295.941L275.887 0.882385H256.83ZM259.511 36.7814L266.118 15.7906H266.597L273.204 36.7814H259.511Z"
    stroke="#B5D8CD"></path>
  <path d="M314.358 0.882385H300.046V60.1176H339.115V48.4687H314.358V0.882385Z" stroke="#B5D8CD"></path>
  <path
    d="M380.178 37.8538C380.178 39.9203 379.72 41.7496 378.803 43.34C377.887 44.9304 376.617 46.1755 374.996 47.0771C373.375 47.9786 371.5 48.4286 369.376 48.4286C367.251 48.4286 365.374 47.9786 363.755 47.0771C362.134 46.1755 360.864 44.9304 359.948 43.34C359.032 41.7496 358.573 39.9203 358.573 37.8538V0.882385H344.262V39.0466C344.262 43.4725 345.311 47.323 347.411 50.5962C349.51 53.8694 352.441 56.4067 356.202 58.2098C359.962 60.013 364.355 60.9128 369.377 60.9128C374.4 60.9128 378.759 60.0112 382.533 58.2098C386.307 56.4084 389.243 53.8711 391.344 50.5962C393.442 47.323 394.493 43.4743 394.493 39.0466V0.882385H380.181V37.8538H380.178Z"
    stroke="#B5D8CD"></path>
  <path
    d="M401.187 60.1176H442.57V48.4687H415.501V35.8676H440.457V24.4976H415.501V12.5296H442.61V0.882385H401.187V60.1176Z"
    stroke="#B5D8CD"></path>
  <path
    d="M494.716 36.5023C493.919 34.5946 492.744 32.9117 491.187 31.4539C489.633 29.996 487.725 28.737 485.467 27.6767C483.208 26.6164 480.616 25.7689 477.694 25.1324L472.631 23.9797C470.851 23.5821 469.302 23.1043 467.987 22.548C466.672 21.9917 465.668 21.3029 464.977 20.4816C464.286 19.6602 463.94 18.6662 463.94 17.4996C463.94 16.4393 464.251 15.4854 464.877 14.6379C465.502 13.7904 466.432 13.1277 467.668 12.6499C468.905 12.1721 470.452 11.9349 472.313 11.9349C475.104 11.9349 477.262 12.5244 478.792 13.7032C480.321 14.882 481.164 16.5335 481.324 18.6523H495.119C495.064 14.9692 494.108 11.7292 492.249 8.93202C490.388 6.13662 487.756 3.96204 484.355 2.41175C480.952 0.861464 476.953 0.0854492 472.355 0.0854492C467.758 0.0854492 463.83 0.854489 460.336 2.39082C456.84 3.9289 454.096 6.07559 452.103 8.83088C450.109 11.5879 449.112 14.7949 449.112 18.4517C449.112 22.984 450.588 26.5694 453.537 29.2061C456.487 31.8428 460.514 33.7453 465.617 34.9102L471.876 36.3419C474.055 36.8197 475.842 37.3551 477.238 37.9515C478.633 38.5479 479.675 39.2367 480.368 40.018C481.059 40.8009 481.405 41.7479 481.405 42.8604C481.405 44.0794 481.032 45.1536 480.289 46.0813C479.544 47.0091 478.488 47.738 477.12 48.2681C475.751 48.7983 474.097 49.0633 472.157 49.0633C470.031 49.0633 468.177 48.732 466.596 48.0693C465.015 47.4067 463.765 46.4336 462.849 45.1466C461.932 43.8614 461.406 42.278 461.275 40.3964H447.561C447.613 45.0089 448.67 48.8314 450.73 51.8657C452.79 54.9 455.667 57.167 459.362 58.6632C463.055 60.1595 467.389 60.9093 472.359 60.9093C477.328 60.9093 481.527 60.1943 485.037 58.7626C488.547 57.3309 491.236 55.2714 493.109 52.5807C494.982 49.8917 495.92 46.6638 495.92 42.9005C495.92 40.5411 495.521 38.4084 494.723 36.5006L494.716 36.5023Z"
    stroke="#B5D8CD"></path>
</svg>
