<svg width="404" height="61" viewBox="0 0 404 61" fill="none" xmlns="http://www.w3.org/2000/svg">
  <g clip-path="url(#clip0_26_2)">
    <path
      d="M20.0959 0.882385L0.121704 60.1176H15.4609L19.3552 47.6735H39.7866L43.681 60.1176H58.9802L39.0425 0.882385H20.0976H20.0959ZM22.7628 36.7814L29.331 15.7906H29.8074L36.3756 36.7814H22.7628Z"
      stroke="#B5D8CD"></path>
    <path
      d="M103.348 31.2359C101.326 30.0571 99.1267 29.4275 96.7484 29.3473V28.7108C98.9146 28.2609 100.824 27.4517 102.475 26.2851C104.127 25.1185 105.42 23.6554 106.359 21.8923C107.296 20.1293 107.766 18.1221 107.766 15.8691C107.766 12.901 107.013 10.2905 105.507 8.03742C104.002 5.78436 101.755 4.0283 98.7686 2.76924C95.7818 1.51018 92.0839 0.880646 87.6714 0.880646H63.0588V60.1159H89.5734C93.9337 60.1159 97.6385 59.4009 100.691 57.9692C103.744 56.5375 106.069 54.5704 107.666 52.0662C109.264 49.5621 110.064 46.7196 110.064 43.5388C110.064 40.7033 109.45 38.2392 108.221 36.1449C106.992 34.0522 105.368 32.4148 103.346 31.2342L103.348 31.2359ZM77.2888 12.2523H85.4531C87.8314 12.2523 89.7195 12.8295 91.1207 13.9822C92.5202 15.1349 93.2209 16.6922 93.2209 18.654C93.2209 20.0595 92.8767 21.2454 92.1899 22.2115C91.5032 23.1793 90.5574 23.9274 89.3561 24.4575C88.153 24.9877 86.7726 25.2527 85.2149 25.2527H77.2888V12.2523ZM92.9844 46.7998C91.5049 47.9926 89.2327 48.589 86.1676 48.589H77.2888V34.4359H86.444C88.2399 34.4359 89.7925 34.7411 91.1016 35.3497C92.409 35.96 93.4208 36.8197 94.1336 37.934C94.8464 39.0466 95.2046 40.372 95.2046 41.91C95.2046 43.9765 94.464 45.607 92.9844 46.7998Z"
      stroke="#B5D8CD"></path>
    <path
      d="M156.556 3.60629C152.302 1.2608 147.533 0.0871887 142.248 0.0871887C136.963 0.0871887 132.147 1.2608 127.881 3.60629C123.612 5.95177 120.245 9.39762 117.774 13.9421C115.304 18.4883 114.068 24.0198 114.068 30.5401C114.068 37.0604 115.302 42.5396 117.774 47.0579C120.245 51.5762 123.614 55.0151 127.881 57.3745C132.147 59.734 136.937 60.9128 142.248 60.9128C147.559 60.9128 152.302 59.7392 156.556 57.3937C160.81 55.0482 164.18 51.6093 166.662 47.0771C169.145 42.5448 170.388 37.0325 170.388 30.5384C170.388 24.0442 169.145 18.4866 166.662 13.9404C164.178 9.39588 160.809 5.95002 156.556 3.60454V3.60629ZM154.218 40.2795C153.135 42.9302 151.575 44.9443 149.541 46.322C147.505 47.6996 145.075 48.3885 142.248 48.3885C139.421 48.3885 136.989 47.6996 134.955 46.322C132.921 44.9443 131.354 42.9302 130.259 40.2795C129.162 37.6289 128.614 34.3836 128.614 30.5401C128.614 26.6967 129.162 23.4043 130.259 20.7396C131.356 18.0768 132.921 16.0557 134.955 14.6763C136.989 13.2986 139.419 12.6098 142.248 12.6098C145.076 12.6098 147.505 13.2986 149.541 14.6763C151.575 16.0539 153.135 18.075 154.218 20.7396C155.301 23.4025 155.843 26.6705 155.843 30.5401C155.843 34.4097 155.301 37.6306 154.218 40.2795Z"
      stroke="#B5D8CD"></path>
    <path
      d="M212.124 37.8538C212.124 39.9203 211.668 41.7496 210.757 43.34C209.846 44.9304 208.584 46.1755 206.972 47.0771C205.361 47.9786 203.497 48.4286 201.385 48.4286C199.272 48.4286 197.407 47.9786 195.797 47.0771C194.185 46.1755 192.923 44.9304 192.012 43.34C191.101 41.7496 190.646 39.9203 190.646 37.8538V0.882385H176.417V39.0466C176.417 43.4725 177.46 47.323 179.548 50.5962C181.635 53.8694 184.548 56.4067 188.288 58.2098C192.026 60.013 196.393 60.9128 201.386 60.9128C206.379 60.9128 210.714 60.0112 214.465 58.2098C218.217 56.4084 221.136 53.8711 223.224 50.5962C225.31 47.323 226.355 43.4743 226.355 39.0466V0.882385H212.127V37.8538H212.124Z"
      stroke="#B5D8CD"></path>
    <path d="M231.109 12.5296H249.023V60.1176H263.053V12.5296H280.968V0.882385H231.109V12.5296Z"
      stroke="#B5D8CD"></path>
    <path
      d="M336.654 37.8538C336.654 39.9203 336.198 41.7496 335.287 43.34C334.376 44.9304 333.114 46.1755 331.503 47.0771C329.891 47.9786 328.027 48.4286 325.915 48.4286C323.803 48.4286 321.937 47.9786 320.327 47.0771C318.716 46.1755 317.453 44.9304 316.542 43.34C315.631 41.7496 315.176 39.9203 315.176 37.8538V0.882385H300.948V39.0466C300.948 43.4725 301.991 47.323 304.079 50.5962C306.165 53.8694 309.079 56.4067 312.818 58.2098C316.556 60.013 320.924 60.9128 325.917 60.9128C330.91 60.9128 335.244 60.0112 338.996 58.2098C342.748 56.4084 345.667 53.8711 347.755 50.5962C349.841 47.323 350.886 43.4743 350.886 39.0466V0.882385H336.657V37.8538H336.654Z"
      stroke="#B5D8CD"></path>
    <path
      d="M402.724 36.5023C401.931 34.5946 400.763 32.9117 399.216 31.4539C397.67 29.996 395.773 28.737 393.529 27.6767C391.283 26.6164 388.706 25.7689 385.801 25.1324L380.768 23.9797C378.998 23.5821 377.458 23.1043 376.15 22.548C374.843 21.9917 373.845 21.3029 373.158 20.4816C372.471 19.6602 372.127 18.6662 372.127 17.4996C372.127 16.4393 372.437 15.4854 373.059 14.6379C373.68 13.7904 374.605 13.1277 375.834 12.6499C377.063 12.1721 378.602 11.9349 380.451 11.9349C383.226 11.9349 385.371 12.5244 386.893 13.7032C388.412 14.882 389.25 16.5335 389.41 18.6523H403.124C403.07 14.9692 402.119 11.7292 400.271 8.93202C398.421 6.13662 395.804 3.96204 392.423 2.41175C389.04 0.861464 385.064 0.0854492 380.493 0.0854492C375.922 0.0854492 372.018 0.854489 368.544 2.39082C365.069 3.9289 362.341 6.07559 360.359 8.83088C358.377 11.5879 357.386 14.7949 357.386 18.4517C357.386 22.984 358.853 26.5694 361.785 29.2061C364.718 31.8428 368.721 33.7453 373.794 34.9102L380.017 36.3419C382.183 36.8197 383.96 37.3551 385.347 37.9515C386.734 38.5479 387.771 39.2367 388.459 40.018C389.146 40.8009 389.49 41.7479 389.49 42.8604C389.49 44.0794 389.12 45.1536 388.381 46.0813C387.64 47.0091 386.59 47.738 385.231 48.2681C383.869 48.7983 382.225 49.0633 380.297 49.0633C378.183 49.0633 376.34 48.732 374.768 48.0693C373.196 47.4067 371.953 46.4336 371.042 45.1466C370.131 43.8614 369.608 42.278 369.478 40.3964H355.844C355.896 45.0089 356.946 48.8314 358.994 51.8657C361.042 54.9 363.902 57.167 367.576 58.6632C371.248 60.1595 375.556 60.9093 380.497 60.9093C385.438 60.9093 389.612 60.1943 393.101 58.7626C396.59 57.3309 399.264 55.2714 401.126 52.5807C402.988 49.8917 403.92 46.6638 403.92 42.9005C403.92 40.5411 403.524 38.4084 402.731 36.5006L402.724 36.5023Z"
      stroke="#B5D8CD"></path>
  </g>
  <defs>
    <clipPath id="clip0_26_2">
      <rect width="404" height="61" fill="white"></rect>
    </clipPath>
  </defs>
</svg>
