<svg height="512" viewBox="0 0 512.004 512.004" width="512" xmlns="http://www.w3.org/2000/svg"
  fill="rgb(181, 216, 205)">
  <path
    d="M295.634 226.422a7.502 7.502 0 0 0-10.592.556l-44.563 49.497-13.53-16.589a7.5 7.5 0 0 0-11.624 9.481l15.374 18.85c4.744 5.817 13.96 6.035 18.976.464l46.514-51.665a7.501 7.501 0 0 0-.555-10.594z"></path>
  <path
    d="M369.888 369.331a15.097 15.097 0 0 0 15.85-7.272l6.495-11.239a7.5 7.5 0 0 0-2.741-10.246 7.499 7.499 0 0 0-10.246 2.74l-6.581 11.277-32.338-6.09a11.67 11.67 0 0 0-9.419 2.331 120.76 120.76 0 0 1-30.403 17.562 11.685 11.685 0 0 0-6.728 6.981l-10.965 31.053-53.986-.058-10.881-31.004a11.683 11.683 0 0 0-6.724-6.984 120.745 120.745 0 0 1-30.401-17.57 11.69 11.69 0 0 0-9.413-2.335l-32.43 6.045-26.941-46.743 21.44-24.934a11.675 11.675 0 0 0 2.693-9.302 122.243 122.243 0 0 1 .004-35.121c.49-3.357-.491-6.75-2.689-9.305l-21.443-25.023 27.047-46.691 32.344 6.092a11.706 11.706 0 0 0 9.413-2.333 120.76 120.76 0 0 1 30.407-17.563 11.683 11.683 0 0 0 6.724-6.979l10.965-31.054 53.986.059 10.881 31.006a11.682 11.682 0 0 0 6.723 6.981 120.77 120.77 0 0 1 30.401 17.57 11.685 11.685 0 0 0 9.413 2.335l32.43-6.045 26.941 46.744-21.44 24.934a11.675 11.675 0 0 0-2.693 9.302 122.251 122.251 0 0 1-.003 35.117 11.685 11.685 0 0 0 2.688 9.309l21.443 25.022-5.509 9.533a7.5 7.5 0 0 0 2.741 10.246 7.498 7.498 0 0 0 10.246-2.74l5.509-9.533a15.087 15.087 0 0 0-1.619-17.365l-20.448-23.793a137.232 137.232 0 0 0 .005-36.464l20.455-23.789a15.09 15.09 0 0 0 1.623-17.363l-26.948-46.661a15.095 15.095 0 0 0-15.848-7.277l-30.858 5.803a135.813 135.813 0 0 0-31.601-18.264l-10.379-29.575a15.103 15.103 0 0 0-14.228-10.084l-53.911-.007a15.099 15.099 0 0 0-14.229 10.081l-10.388 29.572a135.749 135.749 0 0 0-31.605 18.255l-30.856-5.811a15.093 15.093 0 0 0-15.85 7.272l-26.961 46.653a15.089 15.089 0 0 0 1.619 17.365l20.448 23.794a137.232 137.232 0 0 0-.005 36.464L100.66 298a15.09 15.09 0 0 0-1.624 17.364l26.948 46.66a15.106 15.106 0 0 0 15.848 7.278l30.857-5.804a135.731 135.731 0 0 0 31.6 18.264l10.38 29.576a15.097 15.097 0 0 0 14.228 10.083l53.908.007h.005a15.098 15.098 0 0 0 14.227-10.08l10.388-29.572a135.724 135.724 0 0 0 31.605-18.255z"></path>
  <path
    d="M255.877 167.603c-48.77 0-88.447 39.653-88.447 88.394s39.677 88.395 88.447 88.395 88.447-39.653 88.447-88.395c-.001-48.741-39.678-88.394-88.447-88.394zm0 161.788c-40.499 0-73.447-32.925-73.447-73.395s32.948-73.394 73.447-73.394 73.447 32.924 73.447 73.394-32.949 73.395-73.447 73.395z"></path>
  <path
    d="M184.33 457.229c-58.172-20.414-104.596-64.901-127.37-122.053-19.554-49.069-20.127-103.438-1.614-153.088 16.319-43.767 46.2-80.696 85.053-105.552 1.071 6.645 5.524 12.916 11.817 15.629 9.722 4.245 22.823-.003 27.569-9.88l16.023-33.361c6.855-14.29-1.051-32.357-16.18-37.049L144.243.93c-10.979-3.389-22.675 2.774-26.073 13.744-2.413 7.788.448 17.244 6.801 22.376-34.698 20.584-64.066 49.15-85.529 83.339a7.5 7.5 0 0 0 12.704 7.975C74.974 92 107.309 62.398 145.654 42.758c5.868-3.006 5.095-11.893-1.203-13.841l-8.098-2.505c-3.302-1.369-4.587-3.802-3.855-7.3.953-3.076 4.237-4.801 7.315-3.852l34.943 10.808c8.006 3.666 10.084 8.421 7.332 16.778l-15.533 32.341c-3.757 5.057-6.304 4.112-8.189 3.295-2.988-1.849-3.87-4.429-2.644-7.738l3.087-6.428c3.066-6.383-4.01-13.188-10.269-9.876-49.492 26.187-87.58 69.659-107.249 122.408-19.816 53.146-19.2 111.346 1.734 163.881 24.38 61.182 74.073 108.803 136.339 130.654 3.248 1.491 4.44 3.971 3.576 7.438-.999 2.845-4.639 4.567-7.455 3.574-65.454-22.97-117.694-73.032-143.323-137.351-24.573-61.663-22.202-131.536 6.194-191.5a7.5 7.5 0 0 0-13.557-6.42c-30.177 63.71-32.681 137.956-6.572 203.473 27.235 68.348 82.743 121.545 152.288 145.951 10.603 3.724 22.832-2.094 26.577-12.754 3.772-10.729-2.033-22.801-12.762-26.565zm309.196-295.832C466.291 93.049 410.783 39.852 341.237 15.446c-10.728-3.771-22.807 2.026-26.577 12.754-3.772 10.73 2.034 22.8 12.762 26.565 58.172 20.414 104.596 64.901 127.37 122.053 19.554 49.069 20.127 103.438 1.614 153.088-16.319 43.767-46.2 80.696-85.053 105.552-1.027-6.386-5.779-12.739-11.577-15.519-10.361-4.97-22.837-.584-27.81 9.769l-16.023 33.362c-6.855 14.289 1.051 32.357 16.18 37.048l35.383 10.945c10.773 3.458 20.365-3.056 25.481-12.344 4.262-7.725.177-18.616-6.2-23.771a252.859 252.859 0 0 0 55.934-44.903c20.085-21.47 36.246-46.217 48.032-73.552 26.987-62.578 27.971-131.865 2.773-195.096zm-16.545 189.157c-22.406 51.964-60.748 93.004-110.882 118.682-5.868 3.006-5.095 11.893 1.203 13.841l8.098 2.505c3.061 1.249 4.399 3.469 4.014 6.662-3.329 5.621-5.84 4.964-7.536 4.471l-34.881-10.79c-8.007-3.665-10.086-8.42-7.332-16.776l15.823-32.946c1.394-2.904 4.896-4.133 7.803-2.737 3.065 1.839 3.978 4.434 2.739 7.785l-3.086 6.429c-3.065 6.382 4.011 13.189 10.269 9.875 49.492-26.187 87.581-69.658 107.249-122.407 19.816-53.146 19.2-111.346-1.734-163.881-24.38-61.182-74.073-108.803-136.338-130.654-3.248-1.492-4.441-3.971-3.578-7.438 1.497-3.251 3.983-4.442 7.456-3.573 65.454 22.97 117.694 73.032 143.323 137.351 23.713 59.501 22.786 124.707-2.61 183.601z"></path>
</svg>