<svg viewBox="0 0 115 115" xmlns="http://www.w3.org/2000/svg" fill="white">
  <path
    d="M 9.583 100.625 L 47.917 100.625 C 50.563 100.625 52.708 98.48 52.708 95.833 C 52.708 93.187 50.563 91.042 47.917 91.042 L 14.715 91.042 C 17.119 74.549 31.25 62.312 47.917 62.292 C 59.558 62.393 69.617 54.181 71.848 42.755 C 74.078 31.329 67.847 19.937 57.023 15.651 C 46.199 11.366 33.858 15.406 27.663 25.262 C 21.468 35.118 23.18 47.99 31.735 55.885 C 15.467 62.485 4.815 78.278 4.792 95.833 C 4.792 98.48 6.937 100.625 9.583 100.625 Z M 47.917 23.958 C 55.856 23.958 62.292 30.394 62.292 38.333 C 62.292 46.272 55.856 52.708 47.917 52.708 C 39.978 52.708 33.542 46.272 33.542 38.333 C 33.542 30.394 39.978 23.958 47.917 23.958 Z M 110.208 76.667 C 110.208 79.313 108.063 81.458 105.417 81.458 L 91.042 81.458 L 91.042 95.833 C 91.042 98.48 88.896 100.625 86.25 100.625 C 83.604 100.625 81.458 98.48 81.458 95.833 L 81.458 81.458 L 67.083 81.458 C 64.437 81.458 62.292 79.313 62.292 76.667 C 62.292 74.02 64.437 71.875 67.083 71.875 L 81.458 71.875 L 81.458 57.5 C 81.458 54.854 83.604 52.708 86.25 52.708 C 88.896 52.708 91.042 54.854 91.042 57.5 L 91.042 71.875 L 105.417 71.875 C 108.063 71.875 110.208 74.02 110.208 76.667 Z"
    fill="rgb(255, 255, 255)"></path>
</svg>