<svg viewBox="0 0 100 100" xmlns="http://www.w3.org/2000/svg" fill="white">
  <circle cx="77.5" cy="64.516" r="3.75"></circle>
  <path
    d="M93.548 55.806h-3.387V35.484c0-4.965-3.327-9.324-8.028-10.687-2.068-6.424-8.096-11.087-15.198-11.087-1.647 0-3.25.249-4.786.731A15.955 15.955 0 0 0 47.581 5c-6.138 0-11.742 3.576-14.378 9.027a15.841 15.841 0 0 0-4.976-.801c-7.294 0-13.448 4.922-15.349 11.616C8.263 26.254 5 30.592 5 35.484v52.887A6.636 6.636 0 0 0 11.629 95h71.903a6.636 6.636 0 0 0 6.629-6.629V73.226h3.387c.802 0 1.452-.65 1.452-1.452V57.258c0-.801-.65-1.452-1.452-1.452zm-6.304-20.634a6.592 6.592 0 0 0-3.712-1.14h-1.251c.402-1.414.622-2.869.622-4.355 0-.502-.03-.997-.075-1.487a8.257 8.257 0 0 1 4.416 6.982zM66.935 16.613C74.139 16.613 80 22.474 80 29.677c0 1.493-.25 2.954-.746 4.355H72.3c.116-.417.183-.849.183-1.29a4.845 4.845 0 0 0-4.839-4.839h-1.742a1.615 1.615 0 0 1-1.613-1.613c0-.889.723-1.613 1.613-1.613h4.484a1.452 1.452 0 1 0 0-2.904H68.29V20a1.452 1.452 0 1 0-2.904 0v1.827c-.7.081-1.353.308-1.919.672.185-1.774.035-3.582-.372-5.316a13.016 13.016 0 0 1 3.84-.57zm-10.16 17.419c2.121-1.506 3.88-3.511 5.048-5.837.721 1.537 2.272 2.611 4.08 2.611h1.742c1.067 0 1.935.868 1.935 1.935 0 .488-.181.939-.499 1.29H56.775zM45.326 15.965H49l.033.003.033-.003h.451c.891 0 1.616.725 1.616 1.616s-.725 1.616-1.616 1.616h-4.19v-3.232zm4.19 6.135h.319c1.067 0 1.935.868 1.935 1.935s-.868 1.935-1.935 1.935h-.77l-.033-.003-.033.003h-3.674V22.1zM47.581 7.903c7.087-.1 13.161 5.985 13.065 13.065.035 5.19-3.17 10.056-8.014 12.055l-.005.002a13.055 13.055 0 0 1-5.046 1.006c-1.34 0-2.68-.201-3.954-.608.112-.411.203-.827.282-1.245.024-.124.042-.249.063-.374.242.182.541.294.867.294.802 0 1.452-.65 1.452-1.452v-1.771h1.29v1.771a1.452 1.452 0 1 0 2.904 0v-1.837c2.359-.321 4.19-2.327 4.19-4.773.002-1.38-.616-2.709-1.637-3.625.612-.815.998-1.799.998-2.83a4.523 4.523 0 0 0-3.552-4.409V11.29a1.452 1.452 0 1 0-2.904 0v1.771h-1.29V11.29a1.452 1.452 0 1 0-2.904 0v1.771h-.964v.003h-.487a1.452 1.452 0 1 0 0 2.904h.487v5.921a16.192 16.192 0 0 0-6.556-6.717c2.179-4.396 6.734-7.269 11.715-7.269zM33.408 17.2c4.253 1.838 7.233 5.82 7.779 10.414.069.515.103 1.046.103 1.579a13.14 13.14 0 0 1-.828 4.593c-.033.085-.064.168-.096.246h-6.093l2.455-4.092a1.493 1.493 0 0 0 0-1.494L29.47 16.35l-.025-.036c-.015-.024-.032-.046-.048-.069-.017-.023-.031-.048-.049-.069a12.91 12.91 0 0 1 4.06 1.024zm.119 11.554-3.849 2.934v-9.35zm-6.753 2.934-3.849-2.934 3.849-6.416zm.329-15.511c-.018.022-.032.047-.049.069-.016.022-.033.044-.048.068-.008.012-.018.023-.025.036l-7.258 12.097a1.493 1.493 0 0 0 0 1.494l2.455 4.092h-6.09a12.935 12.935 0 0 1-.926-4.839c-.001-6.826 5.26-12.446 11.941-13.017zM12.308 28.203c-.02.329-.05.656-.05.99 0 1.666.269 3.283.766 4.839h-1.395a6.59 6.59 0 0 0-3.712 1.14c.114-2.966 1.839-5.618 4.391-6.969zm74.95 60.168a3.729 3.729 0 0 1-3.726 3.725H11.629a3.73 3.73 0 0 1-3.726-3.725V70.323h13.065c.802 0 1.452-.65 1.452-1.452v-8.226h2.111c.658 2.77 3.146 4.839 6.114 4.839 3.468 0 6.29-2.822 6.29-6.29s-2.822-6.29-6.29-6.29c-2.968 0-5.457 2.069-6.114 4.839h-3.563c-.802 0-1.452.65-1.452 1.452v8.226H7.903v-26.76a3.73 3.73 0 0 1 3.726-3.726h71.903a3.73 3.73 0 0 1 3.726 3.726v15.145H76.613a8.662 8.662 0 0 0-5.462 1.935H56.29v-8.226c0-.802-.65-1.452-1.452-1.452h-3.563c-.658-2.77-3.146-4.839-6.114-4.839-3.468 0-6.29 2.822-6.29 6.29s2.822 6.29 6.29 6.29c2.968 0 5.457-2.069 6.114-4.839h2.111v8.226c0 .801.65 1.452 1.452 1.452h13.984a8.65 8.65 0 0 0-.233 7.258H57.258c-.802 0-1.452.65-1.452 1.452v8.226h-9.369c-.658-2.77-3.146-4.839-6.114-4.839-3.468 0-6.29 2.822-6.29 6.29s2.822 6.29 6.29 6.29c.065 0 .129-.008.193-.01.033.002.064.01.097.01.101 0 .199-.01.294-.03a6.299 6.299 0 0 0 5.531-4.809h10.821c.802 0 1.452-.65 1.452-1.452v-8.226h11.802c.029 0 .055-.007.084-.008a8.672 8.672 0 0 0 6.017 2.428h10.645v15.148zm-60-29.177c0-1.867 1.52-3.387 3.387-3.387s3.387 1.52 3.387 3.387-1.52 3.387-3.387 3.387-3.387-1.52-3.387-3.387zm21.29-9.678c0 1.867-1.52 3.387-3.387 3.387s-3.387-1.52-3.387-3.387 1.52-3.387 3.387-3.387 3.387 1.52 3.387 3.387zm-8.225 32.903c-1.867 0-3.387-1.52-3.387-3.387s1.52-3.387 3.387-3.387 3.387 1.52 3.387 3.387-1.52 3.387-3.387 3.387zm51.774-12.096H76.613c-3.202 0-5.806-2.605-5.806-5.806s2.605-5.806 5.806-5.806h15.484z"></path>
  <circle cx="40.323" cy="69.355" r="1.452"></circle>
  <circle cx="35.484" cy="69.355" r="1.452"></circle>
  <circle cx="50" cy="69.355" r="1.452"></circle>
  <circle cx="45.161" cy="69.355" r="1.452"></circle>
  <path
    d="M50.29 66.258c.803 0 1.462-.648 1.462-1.452 0-.794-.658-1.452-1.462-1.452-.793 0-1.452.658-1.452 1.452a1.457 1.457 0 0 0 1.452 1.452z"></path>
  <circle cx="59.677" cy="64.516" r="1.452"></circle>
  <circle cx="11.29" cy="74.194" r="1.452"></circle>
  <circle cx="54.839" cy="64.516" r="1.452"></circle>
  <circle cx="64.516" cy="64.516" r="1.452"></circle>
  <circle cx="30.645" cy="74.194" r="1.452"></circle>
  <circle cx="20.968" cy="74.194" r="1.452"></circle>
  <circle cx="31.419" cy="70.129" r="1.452"></circle>
  <circle cx="25.806" cy="74.194" r="1.452"></circle>
  <circle cx="16.129" cy="74.194" r="1.452"></circle>
  <circle cx="30.935" cy="88.71" r="1.452"></circle>
  <circle cx="16.419" cy="83.871" r="1.452"></circle>
  <circle cx="26.097" cy="83.871" r="1.452"></circle>
  <circle cx="26.58" cy="88.226" r="1.452"></circle>
  <circle cx="40.613" cy="88.71" r="1.452"></circle>
  <circle cx="21.258" cy="83.871" r="1.452"></circle>
  <circle cx="11.58" cy="83.871" r="1.452"></circle>
  <circle cx="35.774" cy="88.71" r="1.452"></circle>
  <circle cx="74.194" cy="50" r="1.452"></circle>
  <circle cx="69.355" cy="50" r="1.452"></circle>
  <circle cx="69.355" cy="45.161" r="1.452"></circle>
  <circle cx="83.871" cy="50" r="1.452"></circle>
  <circle cx="79.032" cy="50" r="1.452"></circle>
  <circle cx="59.677" cy="45.161" r="1.452"></circle>
  <circle cx="64.516" cy="45.161" r="1.452"></circle>
  <circle cx="59.677" cy="40.323" r="1.452"></circle>
  <circle cx="74.194" cy="84.355" r="1.452"></circle>
  <circle cx="74.677" cy="88.71" r="1.452"></circle>
  <circle cx="79.516" cy="88.71" r="1.452"></circle>
  <circle cx="84.355" cy="88.71" r="1.452"></circle>
  <circle cx="69.839" cy="79.032" r="1.452"></circle>
  <circle cx="64.516" cy="74.677" r="1.452"></circle>
  <circle cx="74.194" cy="79.516" r="1.452"></circle>
  <circle cx="65" cy="79.032" r="1.452"></circle>
  <circle cx="25.806" cy="50" r="1.452"></circle>
  <circle cx="20.968" cy="50" r="1.452"></circle>
  <circle cx="25.806" cy="45.161" r="1.452"></circle>
  <circle cx="25.806" cy="40.323" r="1.452"></circle>
  <circle cx="20.968" cy="54.839" r="1.452"></circle>
  <circle cx="16.129" cy="54.839" r="1.452"></circle>
  <circle cx="16.129" cy="45.161" r="1.452"></circle>
  <circle cx="11.29" cy="45.161" r="1.452"></circle>
  <circle cx="16.129" cy="50" r="1.452"></circle>
</svg>