<svg width="141" height="60" viewBox="0 0 141 60" fill="none" xmlns="http://www.w3.org/2000/svg">
  <path
    d="M35.1001 25.3157H13.2359V11.5507H37.4969V0.739746H0V55.7219H13.2359V35.8692H35.1001V25.3157Z"
    stroke="#B5D8CD"></path>
  <path
    d="M51.3231 0.739746L32.7404 55.7219H47.0098L50.6325 44.1713H69.6389L73.2617 55.7219H87.4938L68.9467 0.739746H51.3231ZM53.8024 34.0612L59.9125 14.5776H60.3557L66.4658 34.0612H53.8024Z"
    stroke="#B5D8CD"></path>
  <path
    d="M136.75 43.6177C139.06 39.4108 140.216 34.2943 140.216 28.2664C140.216 22.2386 139.06 17.08 136.75 12.8601C134.439 8.64196 131.305 5.44351 127.349 3.26643C123.391 1.08935 118.955 0 114.038 0C109.122 0 104.642 1.08773 100.673 3.26643C96.7027 5.44351 93.57 8.64196 91.2718 12.8601C88.9736 17.08 87.8237 22.2143 87.8237 28.2664C87.8237 34.3185 88.972 39.4043 91.2718 43.5982C93.57 47.7922 96.7043 50.9841 100.673 53.1742C104.642 55.3642 109.098 56.4584 114.038 56.4584C117.444 56.4584 120.621 55.934 123.567 54.8883L127.865 60H139.884L131.785 50.0129C133.727 48.2357 135.385 46.1055 136.752 43.6161L136.75 43.6177ZM107.254 42.9168C105.362 41.6381 103.904 39.7685 102.886 37.3082C101.865 34.8478 101.356 31.8355 101.356 28.268C101.356 24.7005 101.865 21.6445 102.886 19.1713C103.906 16.6996 105.362 14.8236 107.254 13.5432C109.146 12.2645 111.407 11.6251 114.038 11.6251C116.67 11.6251 118.929 12.2645 120.823 13.5432C122.715 14.8219 124.166 16.698 125.173 19.1713C126.181 21.6429 126.686 24.6763 126.686 28.268C126.686 31.8598 126.181 34.8495 125.173 37.3082C124.716 38.4251 124.166 39.4189 123.525 40.293L120.121 35.9793H109.392L116.005 44.7054C115.374 44.7912 114.718 44.8349 114.037 44.8349C111.407 44.8349 109.144 44.1955 107.252 42.9168H107.254Z"
    stroke="#B5D8CD"></path>
</svg>