<svg width="735" height="112" viewBox="0 0 735 112" fill="none" xmlns="http://www.w3.org/2000/svg">
  <path
    d="M26.0887 70.7522H69.1523V49.9812H26.0887V22.8896H73.8734V1.612H0.0141602V109.825H26.0887V70.7522Z"
    stroke="#B5D8CD"></path>
  <path
    d="M158.191 88.5446H108.877V65.5244H154.34V44.7534H108.877V22.8896H158.261V1.612H82.806V109.825H158.191V88.5446Z"
    stroke="#B5D8CD"></path>
  <path
    d="M200.838 87.0919H238.275L245.411 109.825H273.445L236.915 1.612H202.201L165.598 109.825H193.705L200.841 87.0919H200.838ZM219.993 28.8469L232.028 67.1937H207.085L219.12 28.8469H219.993Z"
    stroke="#B5D8CD"></path>
  <path d="M296.757 109.825H322.466V22.8896H355.291V1.612H263.929V22.8896H296.757V109.825Z"
    stroke="#B5D8CD"></path>
  <path
    d="M385.758 106.34C392.607 109.634 400.61 111.278 409.759 111.278C418.908 111.278 426.85 109.631 433.724 106.34C440.599 103.049 445.948 98.4141 449.774 92.4312C453.597 86.4516 455.511 79.4206 455.511 71.332V1.612H429.44V69.153C429.44 72.9281 428.605 76.2699 426.936 79.1753C425.267 82.0807 422.954 84.3554 420.001 86.0024C417.048 87.6494 413.633 88.4713 409.762 88.4713C405.891 88.4713 402.473 87.6494 399.523 86.0024C396.57 84.3554 394.258 82.0807 392.588 79.1753C390.919 76.2699 390.084 72.9281 390.084 69.153V1.612H364.013V71.332C364.013 79.4175 365.924 86.4516 369.75 92.4312C373.573 98.4109 378.912 103.046 385.765 106.34H385.758Z"
    stroke="#B5D8CD"></path>
  <path
    d="M493.784 72.7847H507.23L526.972 109.825H555.585L533.088 68.6401C539.096 65.9067 543.728 61.9373 546.977 56.7349C550.246 51.5071 551.88 45.1388 551.88 37.6332C551.88 30.1276 550.271 23.8963 547.051 18.4964C543.83 13.0998 539.268 8.93603 533.362 6.00514C527.456 3.07744 520.435 1.612 512.302 1.612H467.709V109.825H493.78V72.7847H493.784ZM506.638 22.7462C510.607 22.7462 513.936 23.291 516.625 24.3805C519.313 25.47 521.346 27.1171 522.725 29.3184C524.105 31.523 524.796 34.2946 524.796 37.6332C524.796 40.9719 524.105 43.7212 522.725 45.8779C521.346 48.0315 519.313 49.618 516.625 50.6342C513.939 51.6505 510.632 52.1602 506.711 52.1602H493.784V22.7462H506.638Z"
    stroke="#B5D8CD"></path>
  <path
    d="M637.434 88.5446H588.123V65.5244H633.586V44.7534H588.123V22.8896H637.507V1.612H562.052V109.825H637.434V88.5446Z"
    stroke="#B5D8CD"></path>
  <path
    d="M700.363 88.1814C697.869 89.1499 694.855 89.6341 691.323 89.6341C687.449 89.6341 684.072 89.0288 681.192 87.8182C678.312 86.6077 676.035 84.83 674.365 82.4789C672.696 80.131 671.737 77.2384 671.498 73.801H646.516C646.612 82.2273 648.536 89.2104 652.289 94.7536C656.041 100.297 661.282 104.438 668.013 107.172C674.741 109.905 682.635 111.275 691.689 111.275C700.742 111.275 708.391 109.969 714.785 107.353C721.178 104.738 726.078 100.975 729.49 96.0598C732.902 91.1473 734.609 85.2505 734.609 78.3757C734.609 74.0654 733.883 70.1692 732.43 66.684C730.978 63.1988 728.837 60.1246 726.001 57.4613C723.169 54.798 719.694 52.4979 715.581 50.561C711.465 48.624 706.744 47.0757 701.421 45.9129L692.199 43.8072C688.956 43.0808 686.133 42.2079 683.737 41.1917C681.342 40.1754 679.513 38.9171 678.255 37.4166C676.997 35.9161 676.366 34.1002 676.366 31.9689C676.366 30.032 676.933 28.2894 678.073 26.7411C679.211 25.1929 680.905 23.9823 683.158 23.1094C685.41 22.2365 688.229 21.8032 691.619 21.8032C696.703 21.8032 700.634 22.88 703.422 25.0336C706.206 27.1871 707.741 30.204 708.034 34.0747H733.163C733.064 27.3464 731.322 21.4273 727.935 16.3174C724.546 11.2106 719.751 7.23801 713.555 4.40588C707.356 1.57375 700.07 0.156097 691.695 0.156097C683.32 0.156097 676.165 1.56101 669.8 4.36765C663.432 7.17748 658.434 11.0991 654.802 16.1326C651.171 21.1693 649.355 27.0279 649.355 33.7084C649.355 41.9881 652.043 48.538 657.414 53.3548C662.789 58.1717 670.125 61.6473 679.421 63.7754L690.822 66.3909C694.792 67.2638 698.047 68.2418 700.59 69.3314C703.132 70.4209 705.03 71.6793 706.292 73.1065C707.55 74.5369 708.181 76.2667 708.181 78.2992C708.181 80.5261 707.502 82.4885 706.149 84.1833C704.791 85.8781 702.867 87.2098 700.376 88.1782L700.363 88.1814Z"
    stroke="#B5D8CD"></path>
</svg>
