<svg width="569" height="112" viewBox="0 0 569 112" fill="none" xmlns="http://www.w3.org/2000/svg">
  <path
    d="M80.3807 58.0239C77.5486 55.3607 74.0731 53.0605 69.9604 51.1236C65.8445 49.1867 61.1234 47.6384 55.8002 46.4756L46.5777 44.3698C43.3347 43.6435 40.5123 42.7706 38.1166 41.7544C35.721 40.7381 33.8925 39.4797 32.6341 37.9792C31.3758 36.4787 30.7451 34.6629 30.7451 32.5316C30.7451 30.5947 31.3121 28.8521 32.4526 27.3038C33.5898 25.7555 35.2846 24.545 37.5369 23.6721C39.7891 22.7992 42.6084 22.3659 45.9979 22.3659C51.0822 22.3659 55.0133 23.4427 57.8008 25.5962C60.585 27.7498 62.1205 30.7667 62.4136 34.6374H87.542C87.4432 27.9091 85.7007 21.99 82.3143 16.88C78.9248 11.7733 74.1304 7.80065 67.9343 4.96852C61.7351 2.1364 54.4495 0.71875 46.0744 0.71875C37.6993 0.71875 30.5444 2.12365 24.1794 4.9303C17.8113 7.74012 12.813 11.6618 9.18139 16.6953C5.54975 21.7319 3.73393 27.5905 3.73393 34.271C3.73393 42.5508 6.42262 49.1007 11.7936 53.9175C17.1678 58.7344 24.5044 62.21 33.8001 64.3381L45.2015 66.9536C49.1709 67.8265 52.4266 68.8045 54.9687 69.894C57.5109 70.9836 59.4095 72.2419 60.671 73.6691C61.9294 75.0995 62.5601 76.8294 62.5601 78.8619C62.5601 81.0887 61.8816 83.0512 60.5277 84.746C59.1706 86.4408 57.2465 87.7724 54.7553 88.7409C52.2609 89.7094 49.2473 90.1936 45.7144 90.1936C41.8407 90.1936 38.4639 89.5883 35.5841 88.3777C32.7042 87.1671 30.4265 85.3895 28.7572 83.0384C27.0879 80.6905 26.129 77.7979 25.8901 74.3604H0.892334C0.987903 82.7867 2.91204 89.7699 6.66473 95.3131C10.4174 100.856 15.6578 104.998 22.3891 107.731C29.1172 110.464 37.0112 111.834 46.0648 111.834C55.1185 111.834 62.7672 110.528 69.1608 107.913C75.5544 105.297 80.4539 101.535 83.8658 96.6192C87.2776 91.7068 88.9851 85.81 88.9851 78.9352C88.9851 74.6249 88.2588 70.7287 86.8061 67.2435C85.3535 63.7583 83.2127 60.684 80.3775 58.0207L80.3807 58.0239Z"
    stroke="#B5D8CD"></path>
  <path
    d="M98.0641 110.388H173.446V89.1072H124.135V66.087H169.598V45.316H124.135V23.4522H173.519V2.17462H98.0641V110.388Z"
    stroke="#B5D8CD"></path>
  <path
    d="M222.903 27.4854C226.678 24.8954 231.183 23.5988 236.411 23.5988C239.411 23.5988 242.122 24.0225 244.544 24.8699C246.965 25.7173 249.083 26.9151 250.899 28.4634C252.715 30.0148 254.167 31.8881 255.257 34.0926C256.346 36.2971 257.06 38.7534 257.401 41.4644H283.835C283.157 34.9782 281.513 29.2152 278.898 24.1786C276.282 19.1451 272.858 14.8826 268.621 11.3974C264.384 7.91215 259.481 5.26163 253.916 3.44575C248.347 1.62988 242.294 0.721924 235.761 0.721924C226.175 0.721924 217.497 2.86276 209.724 7.15077C201.955 11.4356 195.803 17.7306 191.279 26.0327C186.753 34.3379 184.488 44.4431 184.488 56.3546C184.488 68.2661 186.727 78.2757 191.206 86.53C195.685 94.7842 201.786 101.067 209.508 105.377C217.23 109.687 225.981 111.841 235.761 111.841C243.167 111.841 249.752 110.703 255.515 108.429C261.275 106.154 266.177 103.115 270.22 99.3144C274.262 95.5138 277.419 91.264 279.697 86.5682C281.972 81.8724 283.351 77.1257 283.835 72.3343H257.401C256.964 74.9498 256.155 77.285 254.967 79.3429C253.779 81.4009 252.278 83.1435 250.466 84.5707C248.65 85.9979 246.557 87.0875 244.184 87.8393C241.81 88.5911 239.195 88.9639 236.34 88.9639C231.161 88.9639 226.694 87.7405 222.942 85.2971C219.189 82.8536 216.284 79.1964 214.226 74.3318C212.168 69.4671 211.139 63.4747 211.139 56.3578C211.139 49.2408 212.155 43.5383 214.187 38.6737C216.22 33.8091 219.125 30.0786 222.903 27.4886V27.4854Z"
    stroke="#B5D8CD"></path>
  <path
    d="M360.017 69.7156C360.017 73.4907 359.182 76.8326 357.513 79.738C355.844 82.6433 353.531 84.9179 350.578 86.565C347.625 88.212 344.21 89.0339 340.339 89.0339C336.469 89.0339 333.05 88.212 330.101 86.565C327.147 84.9179 324.835 82.6433 323.165 79.738C321.496 76.8326 320.661 73.4907 320.661 69.7156V2.17462H294.59V71.8946C294.59 79.9801 296.501 87.0142 300.327 92.9938C304.15 98.9735 309.489 103.609 316.342 106.903C323.191 110.197 331.193 111.841 340.342 111.841C349.492 111.841 357.433 110.194 364.308 106.903C371.183 103.612 376.531 98.9767 380.357 92.9938C384.18 87.0142 386.095 79.9833 386.095 71.8946V2.17462H360.023V69.7156H360.017Z"
    stroke="#B5D8CD"></path>
  <path
    d="M477.558 57.2975C480.826 52.0697 482.461 45.7014 482.461 38.1958C482.461 30.6902 480.852 24.4589 477.631 19.0591C474.41 13.6592 469.849 9.49862 463.942 6.56774C458.036 3.64004 451.015 2.17462 442.882 2.17462H398.289V110.388H424.361V73.3473H437.807L457.549 110.388H486.162L463.665 69.2027C469.673 66.4693 474.305 62.4999 477.555 57.2975H477.558ZM424.361 23.3088H437.215C441.184 23.3088 444.513 23.8536 447.202 24.9431C449.89 26.0327 451.923 27.6797 453.302 29.881C454.682 32.0856 455.373 34.8572 455.373 38.1958C455.373 41.5345 454.682 44.2838 453.302 46.4405C451.923 48.5941 449.89 50.1806 447.202 51.1968C444.516 52.2131 441.21 52.7228 437.288 52.7228H424.361V23.3088Z"
    stroke="#B5D8CD"></path>
  <path
    d="M492.629 110.388H568.011V89.1072H518.7V66.087H564.163V45.316H518.7V23.4522H568.084V2.17462H492.629V110.388Z"
    stroke="#B5D8CD"></path>
</svg>
