<svg width="420" height="62" viewBox="0 0 420 62" fill="none" xmlns="http://www.w3.org/2000/svg">
  <g clip-path="url(#clip0_20_33)">
    <path
      d="M39.76 1.8V11.54H13.39V28.49H37.16V37.95H13.39V59.51H1V1.8H39.76ZM40.76 0.799999H0V60.52H14.39V38.96H38.16V27.5H14.39V12.55H40.76V0.799999Z"
      fill="#B5D8CD" />
    <path
      d="M88.31 1.8V11.54H61.06V25.6H86.15V35.06H61.06V49.77H88.27V59.51H48.67V1.8H88.31ZM89.31 0.799999H47.67V60.52H89.27V48.78H62.06V36.07H87.15V24.61H62.06V12.55H89.31V0.799999Z"
      fill="#B5D8CD" />
    <path
      d="M133.97 1.8L153.46 59.52H140.12L136.4 47.68L136.18 46.98H114.05L113.83 47.68L110.11 59.52H96.73L116.24 1.8H133.96M116.86 37.99H133.35L132.94 36.69L126.3 15.53L126.08 14.83H124.13L123.91 15.53L117.27 36.69L116.86 37.99ZM134.68 0.799999H115.52L95.32 60.52H110.83L114.77 47.97H135.43L139.37 60.52H154.84L134.68 0.799999ZM118.22 36.99L124.86 15.83H125.34L131.98 36.99H118.21H118.22Z"
      fill="#B5D8CD" />
    <path
      d="M200.98 1.8V11.54H182.86V59.52H170.67V11.55H152.55V1.8H200.97M201.98 0.799999H151.56V12.54H169.68V60.52H183.87V12.55H201.99V0.799999H201.98Z"
      fill="#B5D8CD" />
    <path
      d="M258.27 1.8V39.28C258.27 43.53 257.26 47.26 255.26 50.38C253.26 53.51 250.42 55.97 246.81 57.69C243.17 59.43 238.86 60.32 234.02 60.32C229.18 60.32 224.83 59.44 221.21 57.69C217.62 55.96 214.78 53.5 212.78 50.38C210.78 47.26 209.77 43.52 209.77 39.28V1.8H222.16V38.07C222.16 40.32 222.67 42.35 223.68 44.1C224.69 45.86 226.11 47.25 227.89 48.24C229.66 49.23 231.73 49.73 234.03 49.73C236.33 49.73 238.4 49.23 240.17 48.24C241.95 47.25 243.37 45.85 244.38 44.1C245.39 42.35 245.9 40.32 245.9 38.07V1.8H258.29M259.27 0.799999H244.88V38.07C244.88 40.15 244.42 42 243.5 43.6C242.58 45.2 241.3 46.46 239.67 47.37C238.04 48.28 236.16 48.73 234.02 48.73C231.88 48.73 230 48.28 228.37 47.37C226.74 46.46 225.46 45.21 224.54 43.6C223.62 42 223.16 40.15 223.16 38.07V0.799999H208.77V39.28C208.77 43.74 209.83 47.62 211.94 50.92C214.05 54.22 217 56.78 220.78 58.6C224.56 60.42 228.98 61.33 234.03 61.33C239.08 61.33 243.46 60.42 247.26 58.6C251.05 56.78 254.01 54.22 256.12 50.92C258.23 47.62 259.29 43.74 259.29 39.28V0.799999H259.27Z"
      fill="#B5D8CD" />
    <path
      d="M292.58 1.8C296.89 1.8 300.65 2.58 303.76 4.12C306.83 5.64 309.23 7.83 310.9 10.63C312.58 13.44 313.42 16.82 313.42 20.68C313.42 24.54 312.56 27.98 310.87 30.69C309.19 33.37 306.76 35.45 303.63 36.87L302.65 37.32L303.17 38.26L314.78 59.51H301.27L290.66 39.6L290.38 39.07H281.36V59.51H268.97V1.8H292.58ZM281.36 29.7H289.49C291.77 29.7 293.73 29.4 295.31 28.79C296.99 28.15 298.29 27.14 299.16 25.77C300.02 24.42 300.46 22.71 300.46 20.68C300.46 18.65 300.02 16.93 299.17 15.56C298.3 14.17 297.01 13.12 295.33 12.44C293.73 11.79 291.75 11.47 289.44 11.47H281.35V29.7M292.58 0.799999H267.97V60.52H282.36V40.08H289.78L300.68 60.52H316.47L304.05 37.79C307.36 36.28 309.92 34.1 311.72 31.23C313.52 28.34 314.43 24.83 314.43 20.69C314.43 16.55 313.54 13.11 311.76 10.13C309.98 7.15 307.46 4.85 304.21 3.24C300.95 1.62 297.08 0.819999 292.59 0.819999L292.58 0.799999ZM282.36 28.7V12.46H289.45C291.64 12.46 293.48 12.76 294.96 13.36C296.44 13.96 297.57 14.87 298.33 16.09C299.09 17.31 299.47 18.84 299.47 20.68C299.47 22.52 299.09 24.04 298.33 25.23C297.57 26.42 296.45 27.29 294.96 27.86C293.47 28.43 291.65 28.7 289.49 28.7H282.36Z"
      fill="#B5D8CD" />
    <path
      d="M362.64 1.8V11.54H335.39V25.6H360.48V35.06H335.39V49.77H362.6V59.51H323V1.8H362.64ZM363.64 0.799999H322V60.52H363.6V48.78H336.39V36.07H361.48V24.61H336.39V12.55H363.64V0.799999Z"
      fill="#B5D8CD" />
    <path
      d="M395.51 1C399.97 1 403.89 1.76 407.16 3.25C410.39 4.73 412.92 6.82 414.68 9.47C416.26 11.86 417.16 14.63 417.36 17.72H405.42C405.08 15.73 404.13 14.12 402.6 12.94C400.89 11.62 398.49 10.95 395.48 10.95C393.49 10.95 391.8 11.22 390.45 11.74C389.03 12.29 387.94 13.08 387.2 14.08C386.45 15.11 386.06 16.28 386.06 17.56C386.06 18.97 386.49 20.2 387.34 21.21C388.13 22.16 389.28 22.95 390.74 23.57C392.11 24.15 393.74 24.66 395.58 25.07L400.68 26.23C403.53 26.85 406.09 27.69 408.28 28.72C410.44 29.74 412.29 30.96 413.77 32.35C415.22 33.72 416.34 35.31 417.08 37.1C417.83 38.89 418.21 40.93 418.21 43.17C418.21 46.74 417.32 49.83 415.56 52.36C413.8 54.9 411.22 56.88 407.89 58.24C404.5 59.63 400.34 60.33 395.52 60.33C390.7 60.33 386.41 59.59 382.83 58.14C379.32 56.71 376.55 54.53 374.6 51.65C372.8 48.99 371.8 45.63 371.61 41.65H383.47C383.71 43.33 384.27 44.8 385.14 46.02C386.17 47.46 387.58 48.57 389.34 49.31C391.05 50.03 393.06 50.39 395.32 50.39C397.39 50.39 399.19 50.1 400.67 49.52C402.21 48.92 403.42 48.08 404.28 47.01C405.17 45.9 405.62 44.59 405.62 43.14C405.62 41.77 405.19 40.59 404.33 39.61C403.54 38.71 402.36 37.93 400.83 37.27C399.38 36.65 397.5 36.08 395.27 35.59L388.98 34.15C384.04 33.02 380.1 31.16 377.28 28.63C374.51 26.15 373.16 22.84 373.16 18.53C373.16 15.07 374.11 12.01 375.98 9.42C377.87 6.8 380.52 4.73 383.85 3.26C387.22 1.77 391.15 1.02 395.53 1.02M395.51 -4.58211e-07C390.97 -4.58211e-07 386.94 0.77 383.43 2.32C379.92 3.87 377.16 6.03 375.15 8.81C373.15 11.59 372.14 14.82 372.14 18.51C372.14 23.08 373.62 26.69 376.59 29.35C379.56 32.01 383.6 33.93 388.73 35.1L395.02 36.54C397.21 37.02 399.01 37.56 400.41 38.16C401.81 38.76 402.86 39.46 403.56 40.24C404.25 41.03 404.6 41.98 404.6 43.11C404.6 44.34 404.23 45.42 403.48 46.36C402.73 47.3 401.67 48.03 400.29 48.56C398.91 49.09 397.25 49.36 395.3 49.36C393.16 49.36 391.3 49.03 389.71 48.36C388.12 47.69 386.86 46.71 385.94 45.41C385.02 44.11 384.49 42.52 384.36 40.62H370.57C370.62 45.27 371.69 49.12 373.76 52.18C375.83 55.24 378.72 57.52 382.44 59.03C386.15 60.54 390.51 61.29 395.51 61.29C400.51 61.29 404.73 60.57 408.26 59.13C411.79 57.69 414.49 55.61 416.38 52.9C418.26 50.19 419.21 46.93 419.21 43.14C419.21 40.76 418.81 38.61 418.01 36.69C417.21 34.77 416.03 33.07 414.46 31.6C412.9 30.13 410.98 28.86 408.71 27.79C406.44 26.72 403.83 25.87 400.89 25.22L395.8 24.06C394.01 23.66 392.45 23.18 391.13 22.62C389.81 22.06 388.8 21.36 388.1 20.54C387.41 19.71 387.06 18.71 387.06 17.53C387.06 16.46 387.37 15.5 388 14.64C388.63 13.79 389.56 13.12 390.81 12.64C392.05 12.16 393.61 11.92 395.48 11.92C398.29 11.92 400.46 12.51 401.99 13.7C403.53 14.89 404.37 16.55 404.54 18.69H418.41C418.36 14.98 417.39 11.71 415.52 8.89C413.65 6.07 411 3.88 407.58 2.32C404.16 0.76 400.14 -0.0200005 395.52 -0.0200005L395.51 -4.58211e-07Z"
      fill="#B5D8CD" />
  </g>
  <defs>
    <clipPath id="clip0_20_33">
      <rect width="419.2" height="61.32" fill="white" />
    </clipPath>
  </defs>
</svg>