<svg width="932" height="112" viewBox="0 0 932 112" fill="none" xmlns="http://www.w3.org/2000/svg">
  <path
    d="M35.4627 87.3403H72.9004L80.0363 110.074H108.07L71.5402 1.86035H36.8261L0.223022 110.074H28.33L35.4659 87.3403H35.4627ZM54.618 29.0953L66.6534 67.4421H41.7097L53.7451 29.0953H54.618Z"
    stroke="#B5D8CD"></path>
  <path
    d="M201.317 92.6796C205.14 86.6999 207.055 79.669 207.055 71.5804V1.86035H180.983V69.4013C180.983 73.1764 180.149 76.5183 178.479 79.4237C176.81 82.3291 174.497 84.6037 171.544 86.2507C168.591 87.8978 165.176 88.7197 161.305 88.7197C157.435 88.7197 154.017 87.8978 151.067 86.2507C148.114 84.6037 145.801 82.3291 144.132 79.4237C142.462 76.5183 141.628 73.1764 141.628 69.4013V1.86035H115.556V71.5804C115.556 79.6658 117.468 86.6999 121.294 92.6796C125.116 98.6592 130.456 103.294 137.308 106.589C144.157 109.883 152.159 111.526 161.309 111.526C170.458 111.526 178.4 109.879 185.274 106.589C192.149 103.298 197.498 98.6624 201.324 92.6796H201.317Z"
    stroke="#B5D8CD"></path>
  <path d="M274.304 110.074V23.1379H307.132V1.86035H215.77V23.1379H248.595V110.074H274.304Z"
    stroke="#B5D8CD"></path>
  <path
    d="M413.016 56.0403C413.016 44.1288 410.739 34.0236 406.189 25.7184C401.637 17.4164 395.463 11.1213 387.671 6.83649C379.876 2.55166 371.138 0.407654 361.453 0.407654C351.769 0.407654 342.945 2.54847 335.127 6.83649C327.306 11.1213 321.136 17.4164 316.609 25.7184C312.082 34.0236 309.817 44.1288 309.817 56.0403C309.817 67.9518 312.079 77.9614 316.609 86.2157C321.136 94.47 327.31 100.752 335.127 105.063C342.945 109.373 351.721 111.526 361.453 111.526C371.185 111.526 379.876 109.382 387.671 105.098C395.467 100.813 401.64 94.5305 406.189 86.2507C410.739 77.971 413.016 67.9009 413.016 56.0371V56.0403ZM383.387 73.8327C381.402 78.675 378.544 82.3546 374.817 84.8713C371.087 87.3881 366.633 88.6464 361.453 88.6464C356.273 88.6464 351.817 87.3881 348.09 84.8713C344.362 82.3546 341.492 78.675 339.485 73.8327C337.475 68.9904 336.471 63.0617 336.471 56.0403C336.471 49.0189 337.475 43.0043 339.485 38.1364C341.495 33.2718 344.362 29.5795 348.09 27.0596C351.817 24.5429 356.27 23.2845 361.453 23.2845C366.636 23.2845 371.087 24.5429 374.817 27.0596C378.544 29.5763 381.402 33.2686 383.387 38.1364C385.371 43.0011 386.365 48.9712 386.365 56.0403C386.365 63.1095 385.371 68.9936 383.387 73.8327Z"
    stroke="#B5D8CD"></path>
  <path
    d="M519.484 43.549V110.074H545.119V1.86035H512.657L485.133 68.8215H483.897L456.446 1.86035H424.055V110.074H449.546V43.3292H450.416L476.344 109.347H492.613L518.758 43.549H519.484Z"
    stroke="#B5D8CD"></path>
  <path
    d="M589.128 1.86035L552.525 110.074H580.632L587.768 87.3403H625.206L632.342 110.074H660.376L623.846 1.86035H589.132H589.128ZM594.012 67.4421L606.047 29.0953H606.92L618.956 67.4421H594.012Z"
    stroke="#B5D8CD"></path>
  <path d="M650.86 23.1379H683.685V110.074H709.393V23.1379H742.221V1.86035H650.86V23.1379Z"
    stroke="#B5D8CD"></path>
  <path
    d="M750.934 110.074H826.319V88.7929H777.005V65.7728H822.471V45.0017H777.005V23.1379H826.393V1.86035H750.934V110.074Z"
    stroke="#B5D8CD"></path>
  <path
    d="M925.377 26.9895C921.067 18.9041 914.931 12.695 906.967 8.36243C899.003 4.02982 889.5 1.86353 878.462 1.86353H838.52V110.077H878.535C889.526 110.077 899.003 107.923 906.967 103.613C914.931 99.3027 921.067 93.0937 925.377 84.9828C929.684 76.8751 931.841 67.2032 931.841 55.9702C931.841 44.7373 929.687 35.0781 925.377 26.9927V26.9895ZM902.501 74.6323C900.322 79.2803 897.127 82.6349 892.915 84.6897C888.704 86.7477 883.546 87.7767 877.446 87.7767H864.592V24.1574H877.009C883.256 24.1574 888.519 25.1864 892.804 27.2444C897.088 29.3023 900.322 32.6537 902.498 37.3018C904.677 41.9498 905.766 48.1715 905.766 55.967C905.766 63.7626 904.677 69.9843 902.498 74.6323H902.501Z"
    stroke="#B5D8CD"></path>
</svg>
