<svg width="795" height="112" viewBox="0 0 795 112" fill="none" xmlns="http://www.w3.org/2000/svg">
  <path
    d="M26.0887 76.9297H43.8805C52.1123 76.9297 59.2513 75.3942 65.304 72.3168C71.3568 69.2425 76.0174 64.9227 79.2827 59.354C82.5511 53.7853 84.1854 47.2736 84.1854 39.819C84.1854 32.3643 82.5766 25.8145 79.3559 20.1725C76.1352 14.5337 71.5734 10.1374 65.6672 6.98989C59.761 3.84238 52.7398 2.26862 44.6069 2.26862H0.0141602V110.482H26.0855V76.9297H26.0887ZM38.9428 23.406C42.9121 23.406 46.2411 24.0719 48.9298 25.4035C51.6185 26.7351 53.6509 28.6243 55.0303 31.0678C56.4097 33.5144 57.101 36.4294 57.101 39.819C57.101 43.2086 56.4097 45.993 55.0303 48.4619C53.6509 50.9309 51.6185 52.8551 48.9298 54.2345C46.2443 55.6139 42.9376 56.3052 39.0161 56.3052H26.0887V23.406H38.9428Z"
    stroke="#B5D8CD"></path>
  <path
    d="M169.519 7.24792C161.724 2.9631 152.986 0.819092 143.301 0.819092C133.617 0.819092 124.793 2.95991 116.975 7.24792C109.155 11.5327 102.984 17.8278 98.4571 26.1298C93.9303 34.4351 91.6653 44.5403 91.6653 56.4518C91.6653 68.3633 93.9271 78.3729 98.4571 86.6271C102.984 94.8814 109.158 101.164 116.975 105.474C124.793 109.784 133.569 111.938 143.301 111.938C153.034 111.938 161.724 109.794 169.519 105.509C177.315 101.224 183.488 94.9419 188.038 86.6622C192.587 78.3824 194.864 68.3123 194.864 56.4486C194.864 44.5849 192.587 34.4319 188.038 26.1266C183.485 17.8246 177.311 11.5296 169.519 7.24474V7.24792ZM165.235 74.2441C163.25 79.0865 160.392 82.766 156.665 85.2827C152.935 87.7995 148.481 89.0578 143.301 89.0578C138.122 89.0578 133.665 87.7995 129.938 85.2827C126.21 82.766 123.34 79.0865 121.333 74.2441C119.323 69.4018 118.32 63.4731 118.32 56.4518C118.32 49.4304 119.323 43.4157 121.333 38.5479C123.343 33.6832 126.21 29.991 129.938 27.471C133.665 24.9543 138.118 23.6959 143.301 23.6959C148.485 23.6959 152.935 24.9543 156.665 27.471C160.392 29.9878 163.25 33.68 165.235 38.5479C167.219 43.4125 168.213 49.3826 168.213 56.4518C168.213 63.5209 167.219 69.405 165.235 74.2441Z"
    stroke="#B5D8CD"></path>
  <path
    d="M347.957 2.27179H319.051L302.711 73.3712H301.768L283.247 2.27179H259.571L240.98 73.1546H240.11L223.698 2.27179H194.791L226.31 110.485H251.585L270.976 44.9034H271.846L291.237 110.485H316.508L347.957 2.27179Z"
    stroke="#B5D8CD"></path>
  <path
    d="M429.949 23.5494V2.27179H354.491V110.485H429.876V89.2044H380.565V66.1842H426.028V45.4131H380.565V23.5494H429.949Z"
    stroke="#B5D8CD"></path>
  <path
    d="M521.346 57.3947C524.614 52.1669 526.248 45.7986 526.248 38.293C526.248 30.7874 524.64 24.5561 521.419 19.1562C518.198 13.7564 513.636 9.59582 507.73 6.66493C501.824 3.73724 494.803 2.27179 486.67 2.27179H442.077V110.485H468.149V73.4445H481.595L501.337 110.485H529.95L507.453 69.2999C513.461 66.5665 518.093 62.5971 521.343 57.3947H521.346ZM468.149 23.406H481.003C484.972 23.406 488.301 23.9508 490.99 25.0403C493.678 26.1298 495.711 27.7769 497.09 29.9782C498.47 32.1828 499.161 34.9544 499.161 38.293C499.161 41.6317 498.47 44.381 497.09 46.5377C495.711 48.6913 493.678 50.2778 490.99 51.294C488.304 52.3103 484.997 52.82 481.076 52.82H468.149V23.406Z"
    stroke="#B5D8CD"></path>
  <path
    d="M610.273 23.5494V2.27179H536.414V110.485H562.488V71.412H605.552V50.641H562.488V23.5494H610.273Z"
    stroke="#B5D8CD"></path>
  <path
    d="M619.206 2.27179V71.9918C619.206 80.0772 621.117 87.1114 624.943 93.091C628.766 99.0707 634.105 103.706 640.957 107C647.807 110.294 655.809 111.938 664.958 111.938C674.107 111.938 682.049 110.291 688.924 107C695.798 103.709 701.147 99.0738 704.973 93.091C708.796 87.1114 710.71 80.0804 710.71 71.9918V2.27179H684.639V69.8128C684.639 73.5879 683.804 76.9297 682.135 79.8351C680.466 82.7405 678.153 85.0152 675.2 86.6622C672.247 88.3092 668.832 89.1311 664.961 89.1311C661.091 89.1311 657.672 88.3092 654.723 86.6622C651.769 85.0152 649.457 82.7405 647.787 79.8351C646.118 76.9297 645.284 73.5879 645.284 69.8128V2.27179H619.212H619.206Z"
    stroke="#B5D8CD"></path>
  <path d="M722.915 2.27179V110.485H794.085V89.2044H748.986V2.27179H722.915Z" stroke="#B5D8CD"></path>
</svg>
