<svg width="629" height="63" viewBox="0 0 629 63" fill="none" xmlns="http://www.w3.org/2000/svg">
  <g clip-path="url(#clip0_21_43)">
    <path
      d="M51.34 2.3V60.02H38.95V36.01H13.39V60.02H1V2.3H13.39V26.27H38.96V2.3H51.35M52.34 1.3H37.95V25.27H14.39V1.3H0V61.02H14.39V37.01H37.96V61.02H52.35V1.3H52.34Z"
      fill="#B5D8CD" />
    <path
      d="M88.9 1.5C94.05 1.5 98.75 2.65 102.89 4.92C107 7.18 110.31 10.55 112.72 14.95C115.14 19.36 116.36 24.83 116.36 31.2C116.36 37.57 115.13 42.99 112.72 47.39C110.31 51.77 107.01 55.14 102.89 57.4C98.76 59.67 94.05 60.82 88.9 60.82C83.75 60.82 79 59.66 74.85 57.38C70.72 55.11 67.42 51.74 65.02 47.37C62.62 42.98 61.4 37.54 61.4 31.2C61.4 24.86 62.62 19.36 65.03 14.95C67.42 10.56 70.73 7.19 74.85 4.93C79 2.66 83.72 1.51 88.9 1.51M88.9 50.2C91.95 50.2 94.62 49.44 96.83 47.94C99.04 46.44 100.76 44.24 101.93 41.4C103.07 38.62 103.65 35.19 103.65 31.2C103.65 27.21 103.07 23.74 101.93 20.94C100.76 18.08 99.05 15.87 96.83 14.38C94.61 12.88 91.94 12.12 88.9 12.12C85.86 12.12 83.18 12.88 80.97 14.38C78.76 15.87 77.04 18.08 75.86 20.94C74.71 23.73 74.12 27.19 74.12 31.2C74.12 35.21 74.71 38.62 75.86 41.4C77.04 44.24 78.76 46.44 80.97 47.94C83.19 49.44 85.86 50.2 88.9 50.2ZM88.9 0.5C83.53 0.5 78.69 1.68 74.37 4.05C70.05 6.41 66.65 9.89 64.15 14.47C61.65 19.05 60.4 24.63 60.4 31.2C60.4 37.77 61.65 43.3 64.15 47.85C66.65 52.4 70.06 55.87 74.37 58.25C78.69 60.63 83.53 61.82 88.9 61.82C94.27 61.82 99.07 60.64 103.37 58.27C107.67 55.91 111.08 52.44 113.59 47.87C116.1 43.3 117.36 37.74 117.36 31.2C117.36 24.66 116.1 19.05 113.59 14.47C111.08 9.89 107.67 6.41 103.37 4.05C99.07 1.69 94.25 0.5 88.9 0.5ZM88.9 49.2C86.04 49.2 83.58 48.51 81.53 47.12C79.47 45.73 77.89 43.7 76.78 41.03C75.67 38.36 75.12 35.08 75.12 31.21C75.12 27.34 75.67 24.02 76.78 21.33C77.89 18.64 79.47 16.61 81.53 15.22C83.59 13.83 86.05 13.14 88.9 13.14C91.75 13.14 94.22 13.83 96.27 15.22C98.33 16.61 99.9 18.65 101 21.33C102.1 24.02 102.64 27.31 102.64 31.21C102.64 35.11 102.09 38.36 101 41.03C99.9 43.7 98.33 45.73 96.27 47.12C94.21 48.51 91.75 49.2 88.9 49.2Z"
      fill="#B5D8CD" />
    <path
      d="M202.49 2.3L185.72 60.02H173.27L162.78 24.54L162.57 23.82H160.59L160.38 24.54L149.89 60.02H137.44L120.62 2.3H134.44L143.32 40.64L143.5 41.41H145.55L145.75 40.66L155.81 2.29H167.33L177.36 40.78L177.55 41.53H179.64L179.82 40.75L188.66 2.29H202.48M203.82 1.3H187.87L178.85 40.54H178.33L168.11 1.3H155.04L144.78 40.42H144.3L135.24 1.3H119.29L136.68 61.02H150.63L161.33 24.83H161.81L172.51 61.02H186.46L203.82 1.3Z"
      fill="#B5D8CD" />
    <path d="M240.15 2.3V60.02H227.76V2.3H240.15ZM241.15 1.3H226.76V61.02H241.15V1.3Z"
      fill="#B5D8CD" />
    <path
      d="M297.35 2.3V12.04H279.23V60.02H267.04V12.05H248.92V2.3H297.34M298.35 1.3H247.93V13.04H266.05V61.02H280.24V13.05H298.36V1.3H298.35Z"
      fill="#B5D8CD" />
    <path
      d="M402.52 2.3L385.75 60.02H373.3L362.81 24.54L362.6 23.82H360.62L360.41 24.54L349.92 60.02H337.47L320.66 2.3H334.48L343.36 40.64L343.54 41.41H345.59L345.79 40.66L355.85 2.29H367.37L377.4 40.78L377.59 41.53H379.68L379.86 40.75L388.7 2.29H402.52M403.85 1.3H387.9L378.88 40.54H378.36L368.14 1.3H355.07L344.81 40.42H344.33L335.27 1.3H319.32L336.71 61.02H350.66L361.36 24.83H361.84L372.54 61.02H386.49L403.85 1.3Z"
      fill="#B5D8CD" />
    <path
      d="M434.32 1.5C439.47 1.5 444.17 2.65 448.31 4.92C452.42 7.18 455.73 10.55 458.14 14.95C460.56 19.36 461.78 24.83 461.78 31.2C461.78 37.57 460.55 42.99 458.14 47.39C455.73 51.77 452.43 55.14 448.31 57.4C444.18 59.67 439.47 60.82 434.32 60.82C429.17 60.82 424.42 59.66 420.27 57.38C416.14 55.11 412.84 51.74 410.44 47.37C408.04 42.98 406.82 37.54 406.82 31.2C406.82 24.86 408.04 19.36 410.45 14.95C412.84 10.56 416.15 7.19 420.27 4.93C424.42 2.66 429.14 1.51 434.32 1.51M434.32 50.2C437.37 50.2 440.04 49.44 442.25 47.94C444.46 46.44 446.18 44.24 447.35 41.4C448.49 38.62 449.07 35.19 449.07 31.2C449.07 27.21 448.49 23.74 447.35 20.94C446.18 18.08 444.47 15.87 442.25 14.38C440.03 12.88 437.36 12.12 434.32 12.12C431.28 12.12 428.6 12.88 426.39 14.38C424.18 15.87 422.46 18.08 421.28 20.94C420.13 23.73 419.54 27.19 419.54 31.2C419.54 35.21 420.13 38.62 421.28 41.4C422.46 44.24 424.18 46.44 426.39 47.94C428.61 49.44 431.28 50.2 434.32 50.2ZM434.32 0.5C428.95 0.5 424.11 1.68 419.79 4.05C415.47 6.41 412.07 9.89 409.57 14.47C407.07 19.05 405.82 24.63 405.82 31.2C405.82 37.77 407.07 43.3 409.57 47.85C412.07 52.4 415.48 55.87 419.79 58.25C424.11 60.63 428.95 61.82 434.32 61.82C439.69 61.82 444.49 60.64 448.79 58.27C453.09 55.91 456.5 52.44 459.01 47.87C461.52 43.3 462.78 37.74 462.78 31.2C462.78 24.66 461.52 19.05 459.01 14.47C456.5 9.89 453.09 6.41 448.79 4.05C444.49 1.69 439.67 0.5 434.32 0.5ZM434.32 49.2C431.46 49.2 429 48.51 426.95 47.12C424.89 45.73 423.31 43.7 422.2 41.03C421.09 38.36 420.54 35.08 420.54 31.21C420.54 27.34 421.09 24.02 422.2 21.33C423.31 18.64 424.89 16.61 426.95 15.22C429.01 13.83 431.47 13.14 434.32 13.14C437.17 13.14 439.64 13.83 441.69 15.22C443.74 16.61 445.32 18.65 446.42 21.33C447.52 24.02 448.06 27.31 448.06 31.21C448.06 35.11 447.51 38.36 446.42 41.03C445.32 43.7 443.75 45.73 441.69 47.12C439.63 48.51 437.17 49.2 434.32 49.2Z"
      fill="#B5D8CD" />
    <path
      d="M495.45 2.3C499.76 2.3 503.52 3.08 506.63 4.62C509.7 6.14 512.1 8.33 513.77 11.13C515.44 13.94 516.29 17.32 516.29 21.18C516.29 25.04 515.43 28.48 513.74 31.19C512.06 33.87 509.63 35.95 506.5 37.37L505.52 37.82L506.04 38.76L517.65 60.01H504.14L493.53 40.1L493.25 39.57H484.23V60.01H471.84V2.3H495.45ZM484.22 30.2H492.35C494.63 30.2 496.59 29.9 498.17 29.29C499.85 28.65 501.15 27.64 502.03 26.27C502.89 24.92 503.33 23.21 503.33 21.18C503.33 19.15 502.89 17.43 502.04 16.06C501.17 14.67 499.88 13.62 498.2 12.94C496.6 12.29 494.62 11.96 492.31 11.96H484.22V30.19M495.45 1.3H470.84V61.02H485.23V40.58H492.65L503.55 61.02H519.34L506.92 38.29C510.23 36.78 512.79 34.6 514.59 31.73C516.39 28.84 517.3 25.33 517.3 21.19C517.3 17.05 516.41 13.61 514.63 10.63C512.85 7.65 510.33 5.35 507.07 3.74C503.81 2.12 499.94 1.32 495.45 1.32V1.3ZM485.22 29.2V12.96H492.31C494.5 12.96 496.34 13.26 497.82 13.86C499.3 14.46 500.43 15.37 501.19 16.59C501.95 17.81 502.33 19.34 502.33 21.18C502.33 23.02 501.95 24.54 501.19 25.73C500.43 26.92 499.31 27.79 497.82 28.36C496.34 28.92 494.51 29.2 492.35 29.2H485.22Z"
      fill="#B5D8CD" />
    <path
      d="M574.75 2.3L554.87 27.37L554.42 27.93L554.81 28.53L575.33 60.01H560.45L545.91 37.03L545.16 35.85L544.28 36.94L538.47 44.19L538.25 44.46V60H525.86V2.3H538.25V27.55H540.54L540.84 27.17L560.26 2.3H574.74M576.81 1.3H559.78L540.06 26.55H539.26V1.3H524.87V61.02H539.26V44.83L545.07 37.58L559.9 61.03H577.17L555.65 28L576.81 1.31V1.3Z"
      fill="#B5D8CD" />
    <path
      d="M604.76 1.5C609.22 1.5 613.14 2.26 616.41 3.75C619.64 5.23 622.17 7.32 623.93 9.97C625.51 12.36 626.41 15.13 626.61 18.22H614.67C614.33 16.23 613.38 14.62 611.85 13.44C610.14 12.12 607.74 11.45 604.73 11.45C602.74 11.45 601.05 11.72 599.7 12.24C598.28 12.79 597.19 13.58 596.45 14.58C595.7 15.61 595.31 16.78 595.31 18.06C595.31 19.47 595.74 20.7 596.59 21.71C597.38 22.66 598.53 23.45 599.99 24.07C601.36 24.65 602.99 25.16 604.83 25.57L609.93 26.73C612.78 27.35 615.34 28.19 617.53 29.22C619.7 30.24 621.54 31.46 623.02 32.85C624.47 34.22 625.59 35.81 626.33 37.6C627.08 39.39 627.46 41.43 627.46 43.67C627.46 47.24 626.57 50.33 624.81 52.86C623.05 55.4 620.47 57.38 617.14 58.74C613.75 60.13 609.59 60.83 604.77 60.83C599.95 60.83 595.66 60.09 592.08 58.64C588.57 57.21 585.8 55.03 583.85 52.15C582.05 49.49 581.05 46.13 580.86 42.15H592.72C592.96 43.83 593.52 45.3 594.39 46.52C595.42 47.96 596.83 49.07 598.59 49.81C600.3 50.53 602.31 50.89 604.57 50.89C606.64 50.89 608.44 50.6 609.92 50.02C611.46 49.42 612.67 48.58 613.53 47.51C614.42 46.4 614.87 45.1 614.87 43.64C614.87 42.27 614.44 41.09 613.58 40.11C612.79 39.21 611.61 38.43 610.08 37.77C608.63 37.15 606.75 36.58 604.52 36.09L598.23 34.65C593.29 33.52 589.35 31.66 586.53 29.13C583.76 26.65 582.41 23.34 582.41 19.03C582.41 15.57 583.36 12.51 585.23 9.92C587.12 7.3 589.77 5.23 593.1 3.76C596.47 2.27 600.4 1.52 604.78 1.52M604.76 0.499996C600.22 0.499996 596.19 1.27 592.68 2.82C589.17 4.37 586.41 6.53 584.4 9.31C582.4 12.09 581.39 15.32 581.39 19.01C581.39 23.58 582.87 27.19 585.84 29.85C588.81 32.51 592.85 34.43 597.98 35.6L604.27 37.04C606.46 37.52 608.26 38.06 609.66 38.66C611.06 39.26 612.11 39.96 612.81 40.74C613.51 41.52 613.85 42.48 613.85 43.61C613.85 44.84 613.48 45.92 612.73 46.86C611.98 47.8 610.92 48.53 609.54 49.06C608.16 49.59 606.5 49.86 604.55 49.86C602.41 49.86 600.55 49.53 598.96 48.86C597.37 48.19 596.11 47.21 595.19 45.91C594.27 44.61 593.74 43.02 593.61 41.12H579.82C579.87 45.77 580.94 49.62 583.01 52.68C585.08 55.74 587.97 58.02 591.69 59.53C595.4 61.04 599.76 61.79 604.76 61.79C609.76 61.79 613.98 61.07 617.51 59.63C621.04 58.19 623.74 56.11 625.63 53.4C627.51 50.69 628.46 47.43 628.46 43.64C628.46 41.26 628.06 39.11 627.26 37.19C626.46 35.27 625.28 33.57 623.71 32.1C622.15 30.63 620.23 29.36 617.96 28.29C615.69 27.22 613.08 26.37 610.14 25.72L605.05 24.56C603.26 24.16 601.7 23.68 600.38 23.12C599.06 22.56 598.05 21.86 597.35 21.04C596.66 20.21 596.31 19.21 596.31 18.03C596.31 16.96 596.62 16 597.25 15.14C597.88 14.28 598.81 13.62 600.06 13.14C601.31 12.66 602.86 12.42 604.73 12.42C607.54 12.42 609.71 13.01 611.24 14.2C612.78 15.39 613.62 17.05 613.79 19.19H627.66C627.61 15.48 626.64 12.21 624.77 9.39C622.9 6.57 620.25 4.38 616.83 2.82C613.41 1.26 609.39 0.479996 604.77 0.479996L604.76 0.499996Z"
      fill="#B5D8CD" />
  </g>
  <defs>
    <clipPath id="clip0_21_43">
      <rect width="628.44" height="62.32" fill="white" />
    </clipPath>
  </defs>
</svg>