<svg width="610" height="63" viewBox="0 0 610 63" fill="none" xmlns="http://www.w3.org/2000/svg">
  <g clip-path="url(#clip0_21_69)">
    <path d="M13.39 2.3V60.02H1V2.3H13.39ZM14.39 1.3H0V61.02H14.39V1.3Z" fill="#B5D8CD" />
    <path
      d="M72.87 2.3V60.02H62.21L38.74 25.98L38.44 25.55H36.47V60.02H24.08V2.3H34.98L58.17 36.25L58.47 36.69H60.48V2.3H72.87ZM73.87 1.3H59.48V35.69H59L35.52 1.3H23.09V61.02H37.48V26.55H37.92L61.69 61.02H73.87V1.3Z"
      fill="#B5D8CD" />
    <path
      d="M130.08 2.3V12.04H111.96V60.02H99.77V12.05H81.65V2.3H130.07M131.08 1.3H80.66V13.04H98.78V61.02H112.97V13.05H131.09V1.3H131.08Z"
      fill="#B5D8CD" />
    <path
      d="M178.5 2.3V12.04H151.25V26.1H176.34V35.56H151.25V50.27H178.46V60.01H138.86V2.3H178.5ZM179.5 1.3H137.86V61.02H179.46V49.28H152.25V36.57H177.34V25.11H152.25V13.05H179.5V1.3Z"
      fill="#B5D8CD" />
    <path
      d="M216.06 1.5C219.41 1.5 222.55 1.98 225.4 2.93C228.24 3.88 230.8 5.24 233.01 6.98C235.21 8.71 237.01 10.78 238.37 13.15C239.54 15.19 240.35 17.43 240.78 19.83H228.1C227.76 18.81 227.31 17.87 226.74 17.03C226.03 15.97 225.14 15.06 224.09 14.34C223.06 13.63 221.87 13.08 220.57 12.7C219.28 12.33 217.85 12.14 216.32 12.14C213.28 12.14 210.57 12.9 208.29 14.41C206.01 15.92 204.23 18.13 203.01 20.98C201.81 23.78 201.21 27.18 201.21 31.09C201.21 35 201.8 38.44 202.97 41.25C204.16 44.12 205.91 46.35 208.16 47.88C210.42 49.42 213.18 50.2 216.36 50.2C219.14 50.2 221.55 49.73 223.5 48.8C225.5 47.85 227.05 46.47 228.1 44.7C229.05 43.09 229.56 41.15 229.62 38.93L229.65 37.9H217.84V29.4H241.57V36.26C241.57 41.4 240.48 45.85 238.32 49.5C236.17 53.14 233.16 55.96 229.39 57.9C225.58 59.85 221.14 60.84 216.2 60.84C210.71 60.84 205.83 59.64 201.69 57.26C197.56 54.9 194.3 51.48 192 47.1C189.68 42.7 188.51 37.38 188.51 31.29C188.51 25.2 189.76 19.53 192.21 15.1C194.66 10.69 197.99 7.29 202.1 4.99C206.23 2.68 210.92 1.51 216.04 1.51M216.06 0.5C210.74 0.5 205.93 1.7 201.63 4.11C197.33 6.51 193.9 10.02 191.35 14.61C188.8 19.21 187.52 24.76 187.52 31.28C187.52 37.8 188.72 42.98 191.13 47.55C193.54 52.12 196.89 55.64 201.21 58.11C205.53 60.58 210.53 61.82 216.22 61.82C221.35 61.82 225.9 60.8 229.87 58.77C233.84 56.74 236.95 53.81 239.21 49.99C241.47 46.17 242.6 41.59 242.6 36.24V28.38H216.87V38.88H228.65C228.6 40.88 228.16 42.66 227.27 44.17C226.32 45.77 224.93 47.01 223.1 47.88C221.27 48.75 219.03 49.18 216.39 49.18C213.4 49.18 210.85 48.47 208.75 47.04C206.65 45.61 205.04 43.55 203.92 40.85C202.8 38.15 202.24 34.89 202.24 31.07C202.24 27.25 202.81 24.04 203.96 21.35C205.11 18.66 206.75 16.62 208.87 15.22C210.99 13.82 213.49 13.12 216.35 13.12C217.79 13.12 219.12 13.29 220.32 13.64C221.52 13.99 222.6 14.49 223.55 15.14C224.5 15.79 225.29 16.6 225.93 17.56C226.57 18.52 227.05 19.6 227.37 20.81H241.96C241.59 17.84 240.68 15.12 239.25 12.63C237.82 10.14 235.95 7.99 233.64 6.18C231.33 4.36 228.69 2.96 225.72 1.97C222.75 0.98 219.53 0.49 216.06 0.49V0.5Z"
      fill="#B5D8CD" />
    <path
      d="M275.34 2.3C279.65 2.3 283.41 3.08 286.52 4.62C289.59 6.14 291.99 8.33 293.66 11.13C295.34 13.94 296.18 17.32 296.18 21.18C296.18 25.04 295.32 28.48 293.63 31.19C291.95 33.87 289.52 35.95 286.39 37.37L285.41 37.82L285.93 38.76L297.54 60.01H284.03L273.42 40.1L273.14 39.57H264.12V60.01H251.73V2.3H275.34ZM264.12 30.2H272.25C274.53 30.2 276.49 29.9 278.07 29.29C279.75 28.65 281.05 27.64 281.92 26.27C282.78 24.92 283.22 23.21 283.22 21.18C283.22 19.15 282.78 17.43 281.93 16.06C281.06 14.67 279.77 13.62 278.09 12.94C276.49 12.29 274.51 11.96 272.2 11.96H264.11V30.19M275.34 1.3H250.73V61.02H265.12V40.58H272.54L283.44 61.02H299.23L286.81 38.29C290.12 36.78 292.68 34.6 294.48 31.73C296.28 28.84 297.19 25.33 297.19 21.19C297.19 17.05 296.3 13.61 294.52 10.63C292.74 7.65 290.22 5.35 286.96 3.74C283.7 2.12 279.83 1.32 275.34 1.32V1.3ZM265.12 29.2V12.96H272.21C274.4 12.96 276.24 13.26 277.72 13.86C279.2 14.46 280.33 15.37 281.09 16.59C281.85 17.81 282.23 19.34 282.23 21.18C282.23 23.02 281.85 24.54 281.09 25.73C280.33 26.92 279.21 27.79 277.72 28.36C276.23 28.93 274.41 29.2 272.25 29.2H265.12Z"
      fill="#B5D8CD" />
    <path
      d="M340.76 2.3L360.24 60.02H346.9L343.18 48.18L342.96 47.48H320.83L320.61 48.18L316.89 60.02H303.51L323.03 2.3H340.75M323.65 38.49H340.14L339.73 37.19L333.09 16.03L332.87 15.33H330.92L330.7 16.03L324.06 37.19L323.65 38.49ZM341.48 1.3H322.32L302.12 61.02H317.63L321.57 48.47H342.23L346.17 61.02H361.64L341.48 1.3ZM325.01 37.49L331.65 16.33H332.13L338.77 37.49H325H325.01Z"
      fill="#B5D8CD" />
    <path
      d="M407.78 2.3V12.04H389.66V60.02H377.47V12.05H359.35V2.3H407.77M408.78 1.3H358.36V13.04H376.48V61.02H390.67V13.05H408.79V1.3H408.78Z"
      fill="#B5D8CD" />
    <path d="M428.95 2.3V60.02H416.56V2.3H428.95ZM429.95 1.3H415.56V61.02H429.95V1.3Z"
      fill="#B5D8CD" />
    <path
      d="M466.51 1.5C471.66 1.5 476.36 2.65 480.5 4.92C484.61 7.18 487.92 10.55 490.33 14.95C492.75 19.36 493.97 24.83 493.97 31.2C493.97 37.57 492.74 42.99 490.33 47.39C487.92 51.77 484.62 55.14 480.5 57.4C476.37 59.67 471.66 60.82 466.51 60.82C461.36 60.82 456.61 59.66 452.46 57.38C448.33 55.11 445.03 51.74 442.63 47.37C440.23 42.98 439.01 37.54 439.01 31.2C439.01 24.86 440.23 19.36 442.64 14.95C445.03 10.56 448.34 7.19 452.46 4.93C456.61 2.66 461.33 1.51 466.51 1.51M466.51 50.2C469.56 50.2 472.23 49.44 474.44 47.94C476.65 46.44 478.37 44.24 479.54 41.4C480.68 38.62 481.26 35.19 481.26 31.2C481.26 27.21 480.68 23.74 479.54 20.94C478.37 18.08 476.66 15.87 474.44 14.38C472.22 12.88 469.55 12.12 466.51 12.12C463.47 12.12 460.79 12.88 458.58 14.38C456.37 15.87 454.65 18.08 453.47 20.94C452.32 23.73 451.73 27.19 451.73 31.2C451.73 35.21 452.32 38.62 453.47 41.4C454.65 44.24 456.37 46.44 458.58 47.94C460.8 49.44 463.47 50.2 466.51 50.2ZM466.51 0.5C461.14 0.5 456.3 1.68 451.98 4.05C447.66 6.41 444.26 9.89 441.76 14.47C439.26 19.05 438.01 24.63 438.01 31.2C438.01 37.77 439.26 43.3 441.76 47.85C444.26 52.41 447.67 55.87 451.98 58.25C456.3 60.63 461.14 61.82 466.51 61.82C471.88 61.82 476.68 60.64 480.98 58.27C485.28 55.91 488.69 52.44 491.2 47.87C493.71 43.3 494.97 37.74 494.97 31.2C494.97 24.66 493.71 19.05 491.2 14.47C488.69 9.89 485.28 6.41 480.98 4.05C476.68 1.69 471.86 0.5 466.51 0.5ZM466.51 49.2C463.65 49.2 461.19 48.51 459.14 47.12C457.08 45.73 455.5 43.7 454.39 41.03C453.28 38.36 452.73 35.08 452.73 31.21C452.73 27.34 453.28 24.02 454.39 21.33C455.5 18.64 457.08 16.61 459.14 15.22C461.2 13.83 463.66 13.14 466.51 13.14C469.36 13.14 471.83 13.83 473.88 15.22C475.94 16.61 477.51 18.65 478.61 21.33C479.71 24.02 480.25 27.31 480.25 31.21C480.25 35.11 479.7 38.36 478.61 41.03C477.51 43.7 475.94 45.73 473.88 47.12C471.82 48.51 469.36 49.2 466.51 49.2Z"
      fill="#B5D8CD" />
    <path
      d="M552.81 2.3V60.02H542.15L518.68 25.98L518.38 25.55H516.41V60.02H504.02V2.3H514.92L538.11 36.25L538.41 36.69H540.42V2.3H552.81ZM553.81 1.3H539.42V35.69H538.94L515.45 1.3H503.03V61.02H517.42V26.55H517.86L541.63 61.02H553.81V1.3Z"
      fill="#B5D8CD" />
    <path
      d="M585.72 1.5C590.18 1.5 594.1 2.26 597.37 3.75C600.6 5.23 603.13 7.32 604.89 9.97C606.47 12.36 607.37 15.13 607.57 18.22H595.63C595.29 16.23 594.34 14.62 592.81 13.44C591.1 12.12 588.7 11.45 585.69 11.45C583.7 11.45 582.01 11.72 580.66 12.24C579.24 12.79 578.15 13.58 577.41 14.58C576.66 15.61 576.27 16.78 576.27 18.06C576.27 19.47 576.7 20.7 577.55 21.71C578.34 22.66 579.49 23.45 580.95 24.07C582.32 24.65 583.95 25.16 585.79 25.57L590.89 26.73C593.74 27.35 596.3 28.19 598.49 29.22C600.66 30.24 602.5 31.46 603.98 32.85C605.43 34.22 606.55 35.81 607.29 37.6C608.04 39.39 608.42 41.43 608.42 43.67C608.42 47.24 607.53 50.33 605.77 52.86C604.01 55.4 601.43 57.38 598.1 58.74C594.71 60.13 590.55 60.83 585.73 60.83C580.91 60.83 576.62 60.09 573.04 58.64C569.53 57.21 566.76 55.03 564.81 52.15C563.01 49.49 562.01 46.13 561.82 42.15H573.68C573.92 43.83 574.48 45.3 575.35 46.52C576.38 47.96 577.79 49.07 579.55 49.81C581.26 50.53 583.27 50.89 585.53 50.89C587.6 50.89 589.4 50.6 590.88 50.02C592.42 49.42 593.63 48.58 594.49 47.51C595.38 46.4 595.83 45.09 595.83 43.64C595.83 42.27 595.4 41.09 594.54 40.11C593.75 39.21 592.57 38.43 591.04 37.77C589.59 37.15 587.71 36.58 585.48 36.09L579.19 34.65C574.25 33.52 570.31 31.66 567.49 29.13C564.72 26.65 563.37 23.34 563.37 19.03C563.37 15.57 564.32 12.51 566.19 9.92C568.08 7.3 570.73 5.23 574.06 3.76C577.43 2.27 581.36 1.52 585.74 1.52M585.72 0.5C581.18 0.5 577.15 1.27 573.64 2.82C570.13 4.37 567.37 6.53 565.36 9.31C563.36 12.09 562.35 15.32 562.35 19.01C562.35 23.58 563.83 27.19 566.8 29.85C569.77 32.51 573.81 34.43 578.94 35.6L585.23 37.04C587.42 37.52 589.22 38.06 590.62 38.66C592.02 39.26 593.07 39.96 593.77 40.74C594.46 41.53 594.81 42.48 594.81 43.61C594.81 44.84 594.44 45.92 593.69 46.86C592.94 47.8 591.88 48.53 590.5 49.06C589.12 49.59 587.46 49.86 585.51 49.86C583.37 49.86 581.51 49.53 579.92 48.86C578.33 48.19 577.07 47.21 576.15 45.91C575.23 44.61 574.7 43.02 574.57 41.12H560.78C560.83 45.77 561.9 49.62 563.97 52.68C566.04 55.74 568.93 58.02 572.65 59.53C576.36 61.04 580.72 61.79 585.72 61.79C590.72 61.79 594.94 61.07 598.47 59.63C602 58.19 604.7 56.11 606.59 53.4C608.47 50.69 609.42 47.43 609.42 43.64C609.42 41.26 609.02 39.11 608.22 37.19C607.42 35.27 606.24 33.57 604.67 32.1C603.11 30.63 601.19 29.36 598.92 28.29C596.65 27.22 594.04 26.37 591.1 25.72L586.01 24.56C584.22 24.16 582.66 23.68 581.34 23.12C580.02 22.56 579.01 21.86 578.31 21.04C577.62 20.21 577.27 19.21 577.27 18.03C577.27 16.96 577.58 16 578.21 15.14C578.84 14.28 579.77 13.62 581.02 13.14C582.27 12.66 583.82 12.42 585.69 12.42C588.5 12.42 590.67 13.01 592.2 14.2C593.73 15.39 594.58 17.05 594.75 19.19H608.62C608.57 15.48 607.6 12.21 605.73 9.39C603.86 6.57 601.21 4.38 597.79 2.82C594.37 1.26 590.35 0.48 585.73 0.48L585.72 0.5Z"
      fill="#B5D8CD" />
  </g>
  <defs>
    <clipPath id="clip0_21_69">
      <rect width="609.41" height="62.32" fill="white" />
    </clipPath>
  </defs>
</svg>