<svg width="1065" height="112" viewBox="0 0 1065 112" fill="none" xmlns="http://www.w3.org/2000/svg">
  <path d="M26.0709 1.45581H0V109.664H26.0709V1.45581Z" stroke="#B5D8CD"></path>
  <path
    d="M104.214 63.7661H103.341L60.7845 1.45581H38.2719V109.664H64.3428V47.2074H65.1424L108.208 109.664H130.285V1.45581H104.214V63.7661Z"
    stroke="#B5D8CD"></path>
  <path d="M139 22.7324H171.825V109.664H197.532V22.7324H230.36V1.45581H139V22.7324Z"
    stroke="#B5D8CD"></path>
  <path
    d="M239.073 109.664H314.457V88.3844H265.147V65.3621H310.608V44.592H265.147V22.7324H314.53V1.45581H239.073V109.664Z"
    stroke="#B5D8CD"></path>
  <path
    d="M378.656 69.5766H400.069C399.977 73.2241 399.123 76.4193 397.502 79.1621C395.782 82.0673 393.265 84.3068 389.949 85.8805C386.633 87.4542 382.577 88.241 377.783 88.241C372.361 88.241 367.748 86.9477 363.948 84.3546C360.148 81.7647 357.23 78.0248 355.197 73.1349C353.165 68.245 352.148 62.3389 352.148 55.4166C352.148 48.4943 353.19 42.6711 355.27 37.8067C357.351 32.9422 360.316 29.2374 364.168 26.6953C368.016 24.1532 372.53 22.8821 377.713 22.8821C380.328 22.8821 382.724 23.1975 384.903 23.8251C387.082 24.4558 389.031 25.3637 390.748 26.5488C392.465 27.737 393.909 29.1992 395.068 30.9417C396.231 32.6842 397.1 34.6465 397.683 36.8223H424.118C423.439 31.4482 421.805 26.5105 419.215 22.0061C416.625 17.5048 413.236 13.6057 409.046 10.315C404.857 7.02423 400.079 4.48212 394.705 2.68863C389.331 0.898327 383.495 0.00317383 377.203 0.00317383C367.567 0.00317383 358.854 2.18212 351.059 6.54002C343.264 10.8979 337.055 17.2404 332.433 25.5676C327.807 33.8947 325.498 43.9644 325.498 55.7798C325.498 67.5952 327.677 76.9863 332.035 85.2657C336.393 93.545 342.48 99.9226 350.298 104.402C358.115 108.881 367.181 111.12 377.496 111.12C386.792 111.12 395.036 109.282 402.223 105.599C409.413 101.92 415.051 96.6191 419.145 89.6937C423.235 82.7714 425.28 74.4665 425.28 64.7855V50.5522H378.656V69.5798V69.5766Z"
    stroke="#B5D8CD"></path>
  <path
    d="M515.729 56.5762C518.997 51.3486 520.632 44.9806 520.632 37.4754C520.632 29.9701 519.023 23.7391 515.802 18.3395C512.582 12.9399 508.02 8.7795 502.114 5.84875C496.208 2.92119 489.186 1.45581 481.054 1.45581H436.462V109.664H462.533V72.6252H475.979L495.72 109.664H524.333L501.836 68.4808C507.845 65.7475 512.476 61.7783 515.726 56.5762H515.729ZM462.533 22.5891H475.387C479.356 22.5891 482.685 23.1338 485.373 24.2233C488.062 25.3127 490.094 26.9597 491.474 29.161C492.853 31.3654 493.544 34.1369 493.544 37.4754C493.544 40.8139 492.853 43.563 491.474 45.7197C490.094 47.8731 488.062 49.4596 485.373 50.4758C482.688 51.492 479.381 52.0017 475.46 52.0017H462.533V22.5891Z"
    stroke="#B5D8CD"></path>
  <path
    d="M562.608 1.45581L526.006 109.664H554.112L561.248 86.9318H598.685L605.821 109.664H633.854L597.322 1.45581H562.608ZM567.492 67.0345L579.527 28.6895H580.4L592.435 67.0345H567.492Z"
    stroke="#B5D8CD"></path>
  <path d="M624.339 22.7324H657.163V109.664H682.871V22.7324H715.695V1.45581H624.339V22.7324Z"
    stroke="#B5D8CD"></path>
  <path d="M750.482 1.45581H724.411V109.664H750.482V1.45581Z" stroke="#B5D8CD"></path>
  <path
    d="M839.373 6.43171C831.578 2.14708 822.84 0.00317383 813.155 0.00317383C803.471 0.00317383 794.647 2.1439 786.83 6.43171C779.009 10.7163 772.838 17.0111 768.312 25.3127C763.785 33.6176 761.52 43.7223 761.52 55.6333C761.52 67.5442 763.782 77.5534 768.312 85.8072C772.838 94.0611 779.012 100.343 786.83 104.653C794.647 108.963 803.423 111.117 813.155 111.117C822.887 111.117 831.578 108.973 839.373 104.688C847.168 100.404 853.342 94.1216 857.891 85.8423C862.44 77.5629 864.717 67.4932 864.717 55.6301C864.717 43.7669 862.44 33.6144 857.891 25.3096C853.338 17.0079 847.165 10.7132 839.373 6.42852V6.43171ZM835.088 73.4248C833.104 78.2669 830.246 81.9463 826.519 84.4629C822.789 86.9795 818.335 88.2379 813.155 88.2379C807.976 88.2379 803.519 86.9795 799.792 84.4629C796.065 81.9463 793.194 78.2669 791.187 73.4248C789.177 68.5827 788.174 62.6543 788.174 55.6333C788.174 48.6122 789.177 42.5978 791.187 37.7302C793.198 32.8658 796.065 29.1737 799.792 26.6539C803.519 24.1373 807.972 22.8789 813.155 22.8789C818.338 22.8789 822.789 24.1373 826.519 26.6539C830.246 29.1705 833.104 32.8626 835.088 37.7302C837.073 42.5946 838.067 48.5644 838.067 55.6333C838.067 62.7021 837.073 68.5859 835.088 73.4248Z"
    stroke="#B5D8CD"></path>
  <path
    d="M941.697 63.7661H940.828L898.268 1.45581H875.756V109.664H901.83V47.2074H902.626L945.692 109.664H967.768V1.45581H941.697V63.7661Z"
    stroke="#B5D8CD"></path>
  <path
    d="M1062.76 66.5248C1061.31 63.0398 1059.16 59.9657 1056.33 57.3025C1053.5 54.6394 1050.02 52.3394 1045.91 50.4025C1041.8 48.4657 1037.07 46.9175 1031.75 45.7547L1022.53 43.649C1019.28 42.9227 1016.46 42.0499 1014.06 41.0337C1011.67 40.0175 1009.84 38.7592 1008.58 37.2587C1007.32 35.7583 1006.69 33.9425 1006.69 31.8114C1006.69 29.8745 1007.26 28.132 1008.4 26.5838C1009.54 25.0356 1011.23 23.8251 1013.48 22.9522C1015.74 22.0794 1018.56 21.6461 1021.95 21.6461C1027.03 21.6461 1030.96 22.7229 1033.75 24.8763C1036.53 27.0298 1038.07 30.0466 1038.36 33.9171H1063.49C1063.39 27.1891 1061.65 21.2702 1058.26 16.1605C1054.87 11.054 1050.08 7.08158 1043.88 4.24959C1037.68 1.41759 1030.4 0 1022.02 0C1013.65 0 1006.49 1.40485 1000.13 4.21136C993.76 7.02106 988.762 10.9425 985.13 15.9758C981.498 21.0122 979.683 26.8705 979.683 33.5507C979.683 41.8301 982.371 48.3797 987.742 53.1963C993.116 58.0129 1000.45 61.4884 1009.75 63.6164L1021.15 66.2317C1025.12 67.1046 1028.37 68.0826 1030.92 69.1721C1033.46 70.2615 1035.36 71.5198 1036.62 72.947C1037.87 74.3773 1038.5 76.1071 1038.5 78.1395C1038.5 80.3662 1037.83 82.3286 1036.47 84.0233C1035.12 85.718 1033.19 87.0496 1030.7 88.0181C1028.21 88.9865 1025.19 89.4707 1021.66 89.4707C1017.79 89.4707 1014.41 88.8654 1011.53 87.6549C1008.65 86.4444 1006.37 84.6668 1004.7 82.3158C1003.03 79.9681 1002.07 77.0755 1001.84 73.6383H976.854C976.949 82.0642 978.873 89.047 982.626 94.5899C986.379 100.133 991.619 104.274 998.35 107.007C1005.08 109.741 1012.97 111.11 1022.03 111.11C1031.08 111.11 1038.73 109.804 1045.12 107.189C1051.51 104.574 1056.41 100.811 1059.83 95.896C1063.24 90.9838 1064.95 85.0873 1064.95 78.2128C1064.95 73.9027 1064.22 70.0067 1062.77 66.5216L1062.76 66.5248Z"
    stroke="#B5D8CD"></path>
</svg>
