<svg width="267" height="35" viewBox="0 0 267 35" fill="none" xmlns="http://www.w3.org/2000/svg">
  <g clip-path="url(#clip0_13_9)">
    <path
      d="M0.5 0.5H22.31C28.71 0.5 31.81 5.13 31.81 10.24C31.81 15.35 28.47 19.69 22.31 19.69H7.8V32.19H0.5V0.5ZM7.8 12.96H22.31C23.74 12.96 24.51 11.96 24.51 10.57V9.66C24.51 8.23 23.75 7.27 22.31 7.27H7.8V12.95V12.96Z"
      stroke="white" stroke-miterlimit="10" />
    <path
      d="M54.75 0.5L67.3 32.19H59.43L56.38 24.41H43.16L40.15 32.19H32.37L44.97 0.5H54.75ZM45.69 17.68H53.9L49.7 7.61L45.69 17.68Z"
      stroke="white" stroke-miterlimit="10" />
    <path
      d="M86.77 21.02V32.19H79.52V21.02L66.68 0.5H75.08L83.19 13.91L91.11 0.5H99.61L86.77 21.02Z"
      stroke="white" stroke-miterlimit="10" />
    <path
      d="M128.72 20.26V0.5H135.97V32.19H129.62L112.54 12.43V32.19H105.24V0.5H111.54L128.72 20.26Z"
      stroke="white" stroke-miterlimit="10" />
    <path
      d="M174.95 7.28H152.09V12.96H169.08V19.69H152.09V25.46H174.95V32.19H144.79V0.5H174.95V7.28Z"
      stroke="white" stroke-miterlimit="10" />
    <path d="M180.82 0.5H211.6V7.28H199.86V32.19H192.56V7.28H180.82V0.5Z" stroke="white"
      stroke-miterlimit="10" />
    <path d="M225.67 32.19H218.37V0.5H225.67V32.19Z" stroke="white" stroke-miterlimit="10" />
    <path
      d="M260.58 2.06L261.55 12.72L250.89 11.75L253.01 9.63C249.72 7.73 245.71 7.76 242.75 10.72C238.94 14.53 240.08 19.86 243.46 23.24C246.8 26.58 252.17 27.83 256.01 23.98C258.42 21.57 258.87 18.45 257.93 15.6L265.69 16.37C266.13 20.7 264.76 25.22 261 28.98C253.81 36.17 244.03 34.55 238.09 28.61C232.18 22.7 230.53 12.89 237.72 5.7C243.97 -0.549998 252.35 -0.239998 258.45 4.19L260.57 2.07L260.58 2.06Z"
      stroke="white" stroke-miterlimit="10" />
  </g>
  <defs>
    <clipPath id="clip0_13_9">
      <rect width="266.28" height="34.24" fill="white" />
    </clipPath>
  </defs>
</svg>