<svg viewBox="0 0 512 512" xmlns="http://www.w3.org/2000/svg">
  <path fill="rgb(136, 167, 167)"
    d="M429.736 374.332a7.998 7.998 0 0 0-2.343-5.656l-19.242-19.243c9.932-16.125 17.149-33.535 21.519-51.913h27.195a8 8 0 0 0 8-8v-67.04a8 8 0 0 0-8-8H429.67a176.542 176.542 0 0 0-21.519-51.915l19.241-19.24a8 8 0 0 0 0-11.314l-47.403-47.404a8 8 0 0 0-11.314 0l-19.242 19.242A176.515 176.515 0 0 0 297.52 82.33V55.135a8 8 0 0 0-8-8h-67.04a8 8 0 0 0-8 8V82.33a176.586 176.586 0 0 0-51.914 21.519l-19.241-19.241a8.002 8.002 0 0 0-11.313 0l-47.404 47.403a8.002 8.002 0 0 0 0 11.313l19.242 19.243a176.523 176.523 0 0 0-21.518 51.913H55.135a8 8 0 0 0-8 8v67.039a8 8 0 0 0 8 8h27.198a176.56 176.56 0 0 0 21.518 51.912l-19.242 19.243a8 8 0 0 0 0 11.313l47.403 47.404a8 8 0 0 0 11.314 0l19.244-19.244a176.545 176.545 0 0 0 51.912 21.52v27.197a8 8 0 0 0 8 8h67.039a8 8 0 0 0 8-8v-27.197a176.588 176.588 0 0 0 51.914-21.518l19.242 19.242a8.001 8.001 0 0 0 11.313 0l47.404-47.403a7.997 7.997 0 0 0 2.342-5.656zm-55.404 36.09-18.139-18.14a8.003 8.003 0 0 0-10.098-.997c-17.725 11.831-37.286 19.938-58.141 24.098a8 8 0 0 0-6.435 7.846v25.637H230.48v-25.637a8 8 0 0 0-6.436-7.846c-20.841-4.154-40.402-12.263-58.139-24.099a8 8 0 0 0-10.097.997l-18.14 18.141-36.089-36.091 18.139-18.141a8 8 0 0 0 .997-10.098c-11.831-17.725-19.938-37.285-24.097-58.138a8 8 0 0 0-7.845-6.436H63.135V230.48h25.637a8 8 0 0 0 7.846-6.436c4.155-20.844 12.263-40.405 24.097-58.141a8 8 0 0 0-.998-10.098l-18.139-18.139 36.091-36.09 18.138 18.138a8.002 8.002 0 0 0 10.098.998c17.726-11.832 37.287-19.939 58.14-24.099a8 8 0 0 0 6.435-7.846V63.135h51.039V88.77a8 8 0 0 0 6.436 7.846c20.844 4.155 40.405 12.263 58.141 24.098a7.998 7.998 0 0 0 10.097-.997l18.138-18.139 36.09 36.091-18.138 18.137a8 8 0 0 0-.997 10.099c11.832 17.726 19.939 37.287 24.098 58.142a8.001 8.001 0 0 0 7.846 6.436h25.635v51.039H423.23a8 8 0 0 0-7.846 6.436c-4.155 20.843-12.263 40.403-24.098 58.141a8 8 0 0 0 .998 10.098l18.139 18.139zm-1.786 63.536a8 8 0 0 1-3.622 10.719C333.631 502.144 295.638 511 256 511c-64.54 0-125.753-23.999-173.001-67.686l.898 11.194a7.999 7.999 0 1 1-15.947 1.279l-2.61-32.525a8.003 8.003 0 0 1 2.318-6.297 8.029 8.029 0 0 1 6.297-2.317l32.524 2.61a8 8 0 0 1 7.334 8.614 7.997 7.997 0 0 1-8.614 7.335l-10.47-.841C138.89 472.803 195.908 495 256 495c37.154 0 72.76-8.298 105.827-24.663a8.001 8.001 0 0 1 10.719 3.621zM41.663 361.828a8 8 0 0 1-14.34 7.098C9.856 333.634 1 295.641 1 256c0-64.54 23.999-125.754 67.687-173.001l-11.194.898a8 8 0 0 1-1.28-15.949l32.526-2.609a8.03 8.03 0 0 1 6.296 2.318 7.995 7.995 0 0 1 2.317 6.296l-2.61 32.524a8 8 0 0 1-8.614 7.335 8 8 0 0 1-7.334-8.614l.84-10.47C39.198 138.889 17 195.906 17 256c0 37.157 8.298 72.763 24.663 105.828zM139.455 38.04a8 8 0 0 1 3.622-10.718C178.37 9.856 216.363 1 256 1c64.541 0 125.755 23.999 173.001 67.687l-.898-11.194a7.999 7.999 0 0 1 7.334-8.614c4.404-.359 8.26 2.932 8.614 7.335l2.609 32.525a8.002 8.002 0 0 1-8.614 8.615l-32.524-2.61a8 8 0 0 1-7.334-8.614 7.996 7.996 0 0 1 8.614-7.335l10.47.841C373.113 39.198 316.095 17 256 17c-37.154 0-72.76 8.298-105.828 24.662a7.997 7.997 0 0 1-10.717-3.622zm323.667 397.398a7.999 7.999 0 0 1-7.334 8.614l-32.526 2.609a7.996 7.996 0 0 1-6.296-2.319 7.995 7.995 0 0 1-2.317-6.296l2.61-32.524a7.993 7.993 0 0 1 8.614-7.335 8 8 0 0 1 7.334 8.614l-.84 10.472C472.803 373.112 495 316.094 495 256c0-37.156-8.297-72.762-24.662-105.827a8.001 8.001 0 0 1 14.34-7.098C502.144 178.367 511 216.36 511 256c0 64.54-23.999 125.754-67.686 173.001l11.194-.898c4.407-.349 8.262 2.931 8.614 7.335zm-87.819-200.431v-30.341c8.482-3.234 14.525-11.448 14.525-21.052 0-12.421-10.104-22.525-22.525-22.525s-22.525 10.104-22.525 22.525c0 9.604 6.044 17.818 14.525 21.052V232.6c-9.967-21.523-31.76-36.498-56.996-36.498h-17.519v-.471c0-15.874-12.915-28.788-28.789-28.788s-28.788 12.914-28.788 28.788v.471h-17.519c-25.236 0-47.029 14.974-56.996 36.498v-27.934c8.481-3.234 14.525-11.448 14.525-21.052 0-12.421-10.105-22.525-22.525-22.525s-22.525 10.104-22.525 22.525c0 9.604 6.044 17.819 14.526 21.053v30.34c-8.094.517-14.525 7.247-14.525 15.469v46.06c0 8.558 6.962 15.521 15.519 15.521h13.967c9.429 22.781 31.886 38.854 58.035 38.854h92.614c26.149 0 48.606-16.073 58.035-38.854h13.967c8.558 0 15.52-6.963 15.52-15.521v-46.06c0-8.222-6.432-14.952-14.526-15.469zm-8-57.918c3.598 0 6.525 2.927 6.525 6.525s-2.927 6.525-6.525 6.525-6.525-2.927-6.525-6.525 2.927-6.525 6.525-6.525zm-124.091 18.543c0-7.052 5.737-12.788 12.788-12.788 7.052 0 12.789 5.736 12.789 12.788v.471h-25.577zm-98.515-18.543c3.598 0 6.525 2.927 6.525 6.525s-2.927 6.525-6.525 6.525-6.525-2.927-6.525-6.525 2.927-6.525 6.525-6.525zm-6.525 118.968v-45.1h9.254a63.096 63.096 0 0 0-.519 7.931v29.238c0 2.688.189 5.331.519 7.931zm210.921-7.931c0 25.798-20.988 46.785-46.786 46.785h-92.614c-25.797 0-46.785-20.987-46.785-46.785v-29.238c0-25.798 20.988-46.785 46.785-46.785h92.614c25.798 0 46.786 20.987 46.786 46.785zm24.736 7.931h-9.254c.329-2.6.519-5.243.519-7.931v-29.238c0-2.688-.189-5.331-.519-7.931h9.254zm-138.961-41.051c0-15.102-12.286-27.388-27.388-27.388s-27.387 12.286-27.387 27.388c0 15.101 12.286 27.387 27.387 27.387s27.388-12.287 27.388-27.387zm-27.388 11.387c-6.279 0-11.387-5.108-11.387-11.387s5.108-11.388 11.387-11.388 11.388 5.108 11.388 11.388c0 6.278-5.108 11.387-11.388 11.387zm97.04-38.775c-15.102 0-27.387 12.286-27.387 27.388 0 15.101 12.286 27.387 27.387 27.387s27.387-12.286 27.387-27.387c0-15.102-12.286-27.388-27.387-27.388zm0 38.775c-6.279 0-11.387-5.108-11.387-11.387s5.108-11.388 11.387-11.388 11.387 5.108 11.387 11.388c0 6.278-5.109 11.387-11.387 11.387zm-21.859 20.594h-53.322c-10.697 0-19.4 8.702-19.4 19.399s8.703 19.4 19.4 19.4h53.322c10.697 0 19.4-8.703 19.4-19.4s-8.703-19.399-19.4-19.399zm0 22.8h-53.322c-1.843 0-3.4-1.558-3.4-3.4s1.557-3.399 3.4-3.399h53.322c1.843 0 3.4 1.557 3.4 3.399s-1.557 3.4-3.4 3.4z" />
</svg>