<svg viewBox="0 0 64 64" width="512" height="512" xmlns="http://www.w3.org/2000/svg"
  fill="rgb(136, 167, 167)">
  <path
    d="M59.753 15.09a2.995 2.995 0 0 0-2.816 2h-3.6a1 1 0 0 0-.707.293l-1.38 1.38H47V16a.996.996 0 0 0-.294-.708L35.718 4.294A.996.996 0 0 0 35.01 4H11.44a4.115 4.115 0 0 0-4.11 4.11v4.279a16.232 16.232 0 0 0 0 23.221v20.28A4.115 4.115 0 0 0 11.44 60h22.915a8.955 8.955 0 0 0 11.638-.304A9.006 9.006 0 1 0 47 45.53v-4.768h2.664a1 1 0 0 0 .707-.293l1.38-1.38h2.186a3 3 0 1 0 0-2h-2.6a1 1 0 0 0-.707.293l-1.38 1.38H47V33.09h1.937a3 3 0 1 0 0-2H47v-5h5.937a3 3 0 1 0 0-2H47v-3.327h4.664a1 1 0 0 0 .707-.293l1.38-1.38h3.186a2.995 2.995 0 1 0 2.816-4Zm-3 22a1 1 0 1 1-1 1 1 1 0 0 1 1-1Zm-5-6a1 1 0 1 1-1 1 1 1 0 0 1 1-1Zm4-7a1 1 0 1 1-1 1 1 1 0 0 1 1-1ZM36.01 7.416 43.588 15H36.01ZM4.441 24a14.28 14.28 0 1 1 14.28 14.28A14.295 14.295 0 0 1 4.44 24ZM9.33 55.89V37.275a16.165 16.165 0 0 0 17.473.836h14.92a1 1 0 0 0 0-2H29.56a16.386 16.386 0 0 0 2.062-2.222h10.1a1 1 0 0 0 0-2H32.95a16.211 16.211 0 0 0 1.053-2.333h7.72a1 1 0 0 0 0-2h-7.126a16.22 16.22 0 0 0 .347-2.445h6.779a1 1 0 0 0 0-2h-6.768a16.293 16.293 0 0 0-.261-2.222h7.029a1 1 0 0 0 0-2h-7.557A16.237 16.237 0 0 0 9.33 10.725V8.11A2.112 2.112 0 0 1 11.44 6h22.57v10a1 1 0 0 0 1 1H45v28.522a8.947 8.947 0 0 0-9.69-.189H22.683a1 1 0 0 0 0 2h10.334a9.006 9.006 0 0 0-1.329 2.223H12.611a1 1 0 0 0 0 2h18.516A8.978 8.978 0 0 0 31 53c0 .262.017.52.04.777h-7.151a1 1 0 0 0 0 2h7.554A8.967 8.967 0 0 0 32.522 58H11.44a2.112 2.112 0 0 1-2.11-2.11ZM40 60a7 7 0 1 1 7-7 7.008 7.008 0 0 1-7 7Zm19-7a6.996 6.996 0 0 1-11.673 5.207 8.972 8.972 0 0 0 1.178-2.288l1.788 1.788a1 1 0 0 0 1.414 0l6-6a1 1 0 0 0-1.414-1.414L51 55.586l-2.028-2.028c.011-.186.028-.37.028-.558a8.94 8.94 0 0 0-1.673-5.207A6.996 6.996 0 0 1 59 53Zm.753-33.91a1 1 0 1 1 1-1 1 1 0 0 1-1 1Z" />
  <path
    d="M12.611 42.556h29.112a1 1 0 0 0 0-2H12.61a1 1 0 0 0 0 2Zm0 4.777h5.812a1 1 0 0 0 0-2H12.61a1 1 0 0 0 0 2Zm5.056 6.444h-5.111a1 1 0 0 0 0 2h5.111a1 1 0 0 0 0-2ZM18.72 36.28A12.28 12.28 0 1 0 6.442 24a12.294 12.294 0 0 0 12.28 12.28Zm0-22.56A10.28 10.28 0 1 1 8.442 24a10.291 10.291 0 0 1 10.28-10.28Z" />
  <path
    d="M10.466 22.756a1.003 1.003 0 1 0 1.003 1.003 1.003 1.003 0 0 0-1.003-1.003Zm16.606 2.006a1.003 1.003 0 1 0-1.003-1.003 1.003 1.003 0 0 0 1.003 1.003Zm-9.246 8.135a1 1 0 0 0 1.79 0l5.015-10.032a.998.998 0 0 0-.081-1.028l-5.016-7.022a1.037 1.037 0 0 0-1.627 0l-5.015 7.022a.998.998 0 0 0-.081 1.028Zm.895-2.684-2.945-5.89 2.574 1.03a1.001 1.001 0 0 0 .742 0l2.573-1.03Zm0-13.097 3.461 4.847-3.461 1.384-3.462-1.384Zm26.986 33.177a1 1 0 0 0-1.414 0L39 55.586l-2.293-2.293a1 1 0 0 0-1.414 1.414l3 3a1 1 0 0 0 1.414 0l6-6a1 1 0 0 0 0-1.414Z" />
</svg>