<svg height="512" width="512" xmlns="http://www.w3.org/2000/svg" fill="rgb(136, 167, 167)">
  <path
    d="M75.48 214.685a7.994 7.994 0 0 0 1.253-.099l116.664-18.484a8 8 0 0 0 6.034-4.597l48.786-107.573a8 8 0 0 0-8.537-11.205L123.016 91.21a8 8 0 0 0-6.034 4.597L68.196 203.381a8 8 0 0 0 7.284 11.304zm58.428-42.458 29.388 12.445-57.727 9.146zm4.962-23.895-5.645-42.539 77.619-12.298zM124.212 159.5l-28.339 21.591 24.14-53.228zm63.87 18.292-39.516-16.733 71.974-54.838zM80.875 49.658a231.01 231.01 0 0 1 27.033-17.773l-7.816-13.961a246.972 246.972 0 0 0-28.914 19.008C50.511 52.677 32.49 71.56 19.061 91.537l13.278 8.925c12.463-18.54 29.246-36.107 48.536-50.804z" />
  <path
    d="M494.711 277.473c-4.782-35.124-22.326-72.219-49.4-104.45-35.011-41.68-80.266-68.54-121.689-72.401a70.653 70.653 0 0 0-9.057-15.751l-29.09-38.181c-17.263-22.659-46.957-33.36-83.616-30.136-35.312 3.107-73.198 18.867-106.68 44.378-33.484 25.51-58.735 57.855-71.102 91.075-12.84 34.487-10.403 65.957 6.86 88.616l16.723 21.948a70.038 70.038 0 0 0-8.235 14.723l-18.174 44.427c-10.786 26.365-4.964 57.389 16.392 87.357 20.572 28.867 53.358 53.543 92.317 69.481 28.43 11.63 57.772 17.638 85.123 17.637a169.207 169.207 0 0 0 29.423-2.492c36.237-6.407 62.134-24.455 72.92-50.82l17.08-41.751q4.56 1.77 9.136 3.235a123.501 123.501 0 0 0 37.401 6.244c19.716 0 37.12-5.83 50.79-17.312l36.753-30.872c21.812-18.322 31.09-48.492 26.125-84.955zm-227.92 55.95 24.494-20.574a238.01 238.01 0 0 0 35.732 32.673l-24.14 20.277a220.19 220.19 0 0 1-36.086-32.375zm-10.286-12.255q-5.005-6.394-9.51-13.071a32.274 32.274 0 0 0-1.103-1.783l-.07.046a214.9 214.9 0 0 1-15.68-27.926q10.293-6.353 20.183-13.872 2.578-1.965 5.086-3.987a236.544 236.544 0 0 0 25.585 40.022zm-22.414 8.983a16 16 0 0 1-20.865 8.752l-.002-.001-37.022-15.145 9.898-24.194a218.31 218.31 0 0 0 30.094-13.152 227.503 227.503 0 0 0 17.292 30.325 15.99 15.99 0 0 1 .605 13.415zm-18.228 32.18a16 16 0 0 1-20.813 20.997l-37.022-15.145 12.116-29.618 37.022 15.145a15.894 15.894 0 0 1 8.697 8.622zm-113.855-91.009c.856 0 1.719-.013 2.584-.03l16.576 21.757c-21.09-1.936-37.899-10.14-48.414-23.942l-1.387-1.82a111.665 111.665 0 0 0 30.641 4.035zm40.234 21.68c-.316.027-.626.047-.94.072l-17.807-23.37a182.605 182.605 0 0 0 33.812-8.425l18.857 24.75a158.158 158.158 0 0 1-33.922 6.972zm72.553-61.874 19.386 25.446a220.215 220.215 0 0 1-42.307 23.674l-19.106-25.077a237.998 237.998 0 0 0 42.027-24.043zm32.113 15.75-19.387-25.446a238.014 238.014 0 0 0 34.336-34.138l19.106 25.077a220.22 220.22 0 0 1-34.055 34.506zm43.798-48.119-18.857-24.75a182.632 182.632 0 0 0 17.097-30.363l17.806 23.37c-.108.297-.21.591-.32.888a158.158 158.158 0 0 1-15.726 30.855zm21.366-51.16-16.574-21.753a113.255 113.255 0 0 0 4.955-33.097l1.386 1.818c10.515 13.8 13.964 32.185 10.233 53.032zM39.07 157.59c11.326-30.422 34.696-60.23 65.804-83.93 31.107-23.701 66.048-38.321 98.386-41.167q5.704-.502 11.11-.5c25.771 0 46.255 8.484 58.378 24.394 13.817 18.135 15.448 44.18 4.593 73.337-11.326 30.423-34.696 60.23-65.803 83.932-31.108 23.7-66.05 38.32-98.387 41.166-30.989 2.726-55.659-5.756-69.479-23.883l-.009-.012c-13.817-18.135-15.448-44.18-4.593-73.336zm20.957 121.215c15.248 20.014 40.192 30.699 71.07 30.699q6.12 0 12.546-.563a165.605 165.605 0 0 0 22.84-3.683l-23.265 56.868-14.808-6.059-6.059 14.809 14.809 6.058-6.058 14.809 14.809 6.058 6.058-14.809 14.808 6.058-6.058 14.809 14.809 6.059 6.058-14.81 7.405 3.03a32 32 0 0 0 41.626-41.993 32.667 32.667 0 0 0-.855-1.854 31.909 31.909 0 0 0 18.844-17.438c.23.274.451.552.682.826 20.674 24.613 45.102 44.233 70.533 56.935-9.21 19.908-30.374 33.684-59.926 38.909-31.967 5.652-69.507.61-105.703-14.198s-66.506-37.522-85.346-63.958C50.79 330.03 45.6 304.456 54.233 283.354a53.672 53.672 0 0 1 3.69-7.31zm80.75 152.182-12.112 29.607a220.2 220.2 0 0 1-41.848-24.476l11.937-29.178a238.02 238.02 0 0 0 42.024 24.047zm14.815 6.045a238.043 238.043 0 0 0 46.823 12.314l-11.937 29.18a220.198 220.198 0 0 1-47.004-11.873zM36.06 327.779l.865-2.115a113.253 113.253 0 0 0 13.382 30.672l-10.354 25.312c-9.019-19.162-10.462-37.81-3.893-53.869zm14.613 72.013c-.184-.258-.358-.516-.54-.774l11.125-27.193a182.62 182.62 0 0 0 24.396 24.88l-11.78 28.798a158.152 158.152 0 0 1-23.201-25.711zm156.478 80.235 11.784-28.804c4.822.356 9.603.547 14.322.547a174.583 174.583 0 0 0 20.516-1.192l-11.125 27.196c-.31.057-.615.12-.927.174a158.147 158.147 0 0 1-34.57 2.08zm54.933-7.506 10.355-25.312a113.251 113.251 0 0 0 31.043-12.5l-.865 2.116c-6.57 16.058-20.67 28.348-40.533 35.696zm54.853-97.637 23.825-20.012a182.601 182.601 0 0 0 31.142 15.632l-22.497 18.898c-.301-.094-.6-.181-.902-.278a158.15 158.15 0 0 1-31.568-14.24zm104.604 6.165c-13.285 11.16-31.484 15.48-52.486 12.743l20.941-17.59a117.098 117.098 0 0 0 27.801 3.538c1.86 0 3.691-.07 5.508-.173zm36.754-30.872c-17.458 14.663-43.396 17.53-73.036 8.075-30.927-9.867-61.811-31.793-86.965-61.738a221.655 221.655 0 0 1-30.344-46.702c24.716-22.702 43.386-49.221 53.477-76.326 7.493-20.126 9.773-39.22 6.95-56.14 35.273 5.56 74.598 30.152 104.683 65.968 25.153 29.945 41.418 64.151 45.797 96.317 4.198 30.828-3.105 55.882-20.562 70.546z" />
  <path
    d="M418.68 218.08a32.028 32.028 0 0 0-32.308 19.544l-13.333-3.894-1.533-13.8a32.008 32.008 0 1 0-16.159-.542l1.906 17.154-3.618 3.039a31.975 31.975 0 1 0 10.29 12.252l3.62-3.04 16.566 4.839a32.02 32.02 0 0 0 29.023 28.208q1.42.123 2.827.123a31.76 31.76 0 0 0 20.528-7.5 32 32 0 0 0-17.81-56.382zm-66.48-19.086a16 16 0 1 1 10.866 5.65 15.897 15.897 0 0 1-10.865-5.65zm-1.212 68.033a15.999 15.999 0 1 1-15.967-17.387c.469 0 .94.02 1.414.061a16 16 0 0 1 14.553 17.326zm80.859-15.68a15.893 15.893 0 0 1-5.65 10.864 16 16 0 1 1-10.318-28.252q.704 0 1.414.062a16 16 0 0 1 14.554 17.326zm25.213-95.726a236.961 236.961 0 0 1 7.353 9.211l12.75-9.665a252.484 252.484 0 0 0-7.852-9.837c-25.475-30.328-57.067-53.361-88.958-64.856l-5.426 15.051c29.277 10.554 58.445 31.896 82.133 60.096zm-95.387-80.527a119.994 119.994 0 0 0-17.149-2.424l-1.048 15.966a103.895 103.895 0 0 1 14.851 2.104zm-.706 356.966-1.072.016.21 15.999 1.15-.018c5.126-.09 10.3-.339 15.375-.74l-1.26-15.95c-4.75.376-9.595.609-14.403.693zm29.859-2.445 2.348 15.827c28.018-4.157 53.95-13.135 74.99-25.963l-8.329-13.662c-19.228 11.724-43.09 19.953-69.01 23.798z" />
</svg>