<svg viewBox="0 0 511.998 511.998" xmlns="http://www.w3.org/2000/svg" fill="rgb(136, 167, 167)">
  <path
    d="M180.43 364.147a7.5 7.5 0 0 0 0-10.606l-21.964-21.964a7.5 7.5 0 0 0-10.606 0 7.5 7.5 0 0 0 0 10.606l21.964 21.964a7.498 7.498 0 0 0 10.606 0z" />
  <path
    d="M443.677 318.507c43.207-34.058 68.627-86.332 68.318-141.171-.263-47.249-18.812-91.674-52.23-125.094C426.345 18.821 381.917.271 334.667.008c-32.652-.155-64.768 8.66-92.771 25.569a7.5 7.5 0 0 0 7.754 12.84c25.727-15.536 55.207-23.603 84.933-23.41 89.06.496 161.917 73.353 162.412 162.413.278 49.496-22.345 96.719-60.904 127.948l-15.953-27.632c29.462-25.584 45.268-61.735 45.268-99.385 0-72.898-59.238-131.75-131.75-131.75-75.379 0-131.811 61.493-131.811 131.827 0 70.532 57.346 131.67 131.81 131.67 2.74 0 5.481-.085 8.214-.255l-18.215 31.551c-23.849-1.43-46.563-7.902-67.579-19.262-12.753-6.9-28.208-4.658-38.462 5.583l-9.539 9.539-33.324-33.323 9.536-9.536c10.088-10.075 12.391-25.888 5.598-38.454-13.204-24.413-19.963-52.094-19.548-80.052.657-44.761 19.22-86.175 51.923-116.748a7.5 7.5 0 0 0 .357-10.601 7.5 7.5 0 0 0-10.601-.357c-26.845 25.096-44.875 56.8-52.533 91.605H12.5c-6.893 0-12.5 5.607-12.5 12.5v21.062c0 6.893 5.607 12.5 12.5 12.5h142.975c1.14 27.024 8.397 53.53 21.212 77.224 3.718 6.878 2.512 15.2-3.006 20.71l-13.595 13.595-27.9 9.3a22.604 22.604 0 0 0-8.795 5.436l-41.448 41.448a7.5 7.5 0 0 0 0 10.606 7.5 7.5 0 0 0 10.606 0l41.448-41.448a7.547 7.547 0 0 1 2.932-1.812l25.19-8.396 37.374 37.374-8.396 25.19a7.532 7.532 0 0 1-1.812 2.931L75.413 491.881c-6.823 6.823-17.926 6.823-24.749 0l-30.538-30.538c-6.823-6.823-6.823-17.926 0-24.749l47.329-47.329a7.5 7.5 0 0 0 0-10.606 7.5 7.5 0 0 0-10.606 0l-47.33 47.329c-12.672 12.672-12.672 33.29 0 45.962l30.538 30.538c12.672 12.672 33.29 12.672 45.962 0l113.872-113.872a22.61 22.61 0 0 0 5.436-8.795l9.304-27.912 13.584-13.584c5.521-5.513 13.848-6.719 20.724-2.999 20.776 11.231 43.065 18.088 66.414 20.447l-17.221 29.828c-4.067 7.044-4.067 15.456 0 22.5s11.352 11.25 19.485 11.25h145.312c8.134 0 15.418-4.206 19.485-11.25s4.067-15.456 0-22.5zM15 154.788h141.852a179.762 179.762 0 0 0-1.381 16.062H15zm318.656-93.187c55.91 0 103.695 39.728 114.479 93.719h-29.323v-14.094c0-17.92-14.579-32.5-32.5-32.5h-43.188c-17.921 0-32.5 14.58-32.5 32.5v60.688h-16.063v-29.625c0-17.92-14.58-32.5-32.5-32.5h-38.645c16.207-46.494 60.227-78.188 110.24-78.188zm-.001 233.497c-61.856 0-112.632-48.354-116.512-109.248H248.5v29.625c0 17.92 14.58 32.5 32.5 32.5h43.188c17.921 0 32.5-14.58 32.5-32.5v-23.359c0-4.142-3.357-7.5-7.5-7.5s-7.5 3.358-7.5 7.5v23.359c0 9.649-7.851 17.5-17.5 17.5H281c-9.649 0-17.5-7.851-17.5-17.5V183.35c0-6.893-5.607-12.5-12.5-12.5h-33.856a117.214 117.214 0 0 1 2.14-16.062h42.778c9.649 0 17.5 7.851 17.5 17.5v32.125c0 6.893 5.607 12.5 12.5 12.5h21.063c6.893 0 12.5-5.607 12.5-12.5v-63.188c0-9.649 7.851-17.5 17.5-17.5h43.188c9.649 0 17.5 7.851 17.5 17.5v16.594c0 6.893 5.607 12.5 12.5 12.5h33.821c.356 5.264.37 10.586 0 16.062H405.25c-9.649 0-17.5-7.851-17.5-17.5v-16.594c0-6.893-5.607-12.5-12.5-12.5h-21.062c-6.893 0-12.5 5.607-12.5 12.5v3.828c0 4.142 3.357 7.5 7.5 7.5s7.5-3.358 7.5-7.5v-1.328h16.062v14.094c0 17.92 14.579 32.5 32.5 32.5h42.891c-4.843 24.349-17.242 46.283-35.661 63.09l-2.722-4.715c-4.067-7.044-11.352-11.25-19.485-11.25-8.135 0-15.419 4.206-19.486 11.25l-19.65 34.034a117.24 117.24 0 0 1-17.482 1.308zm135.768 105.503c-.651 1.127-2.587 3.75-6.495 3.75H317.616c-3.908 0-5.844-2.623-6.495-3.75-.65-1.127-1.954-4.115 0-7.5l72.655-125.844c1.954-3.385 5.193-3.75 6.496-3.75 1.302 0 4.541.365 6.495 3.75l72.655 125.844c1.955 3.384.652 6.372.001 7.5z" />
  <path
    d="M390.272 311.163a7.5 7.5 0 0 0-7.5 7.5v31.062c0 4.142 3.357 7.5 7.5 7.5s7.5-3.358 7.5-7.5v-31.062a7.5 7.5 0 0 0-7.5-7.5z" />
  <circle cx="390.272" cy="380.933" r="7.5" />
</svg>