<svg height="512" viewBox="0 0 511.97 511.97" width="512" xmlns="http://www.w3.org/2000/svg"
  fill="rgb(136, 167, 167)">
  <path
    d="M509.92 454.931c2.83-3.678 2.723-8.991-.281-12.542l-22.026-26.074c-3.564-4.22-9.874-4.752-14.092-1.186-4.219 3.563-4.75 9.873-1.186 14.092l8.128 9.621h-97.795V172.46l44.438-44.438 24.083 24.09c6.174 6.178 17.072 1.643 17.072-7.069V39.836c0-5.503-4.59-9.966-10.054-10h-104.63c-8.685.048-13.175 11.48-7.017 17.639l24.877 24.877-43.913 43.913h-98.431c-5.523 0-10 4.478-10 10s4.477 10 10 10h78.431l-117.8 117.8H60.091v-117.8h80.865c5.523 0 10-4.478 10-10s-4.477-10-10-10H60.089V40.896l9.622 8.128c4.218 3.563 10.528 3.033 14.092-1.187 3.564-4.219 3.033-10.528-1.186-14.093L56.542 11.718c-3.675-3.104-9.231-3.104-12.906 0L17.561 33.745c-4.219 3.564-4.75 9.874-1.186 14.093 3.514 4.161 9.928 4.702 14.092 1.187l9.622-8.128v397.945H10c-5.523 0-10 4.478-10 10s4.477 10 10 10h30.089v33.737c0 5.522 4.477 10 10 10s10-4.478 10-10v-33.737h420.373l-8.128 9.622c-3.564 4.219-3.033 10.528 1.186 14.093 4.163 3.517 10.578 2.974 14.092-1.187l22.026-26.075.282-.364zm-265.043-144.68 117.79-117.79v246.378h-117.79zm-20 20v108.588H116.289zm-55.153-56.188L60.091 383.696V274.063zM60.089 411.99 392.651 79.422c3.905-3.905 3.905-10.237 0-14.143l-15.007-15.39h70.617v71.005l-14.081-14.087c-3.853-3.853-10.29-3.854-14.144-.001L88 438.842H60.089z" />
  <path
    d="M177.44 130.089c3.475 8.336 15.789 7.919 18.701-.611 2.944-8.625-6.794-16.451-14.598-11.79-4.196 2.506-5.983 7.885-4.103 12.401z" />
</svg>